<?xml version="1.0" encoding="utf-8"?>
<!-- Generator: Adobe Illustrator 16.0.0, SVG Export Plug-In . SVG Version: 6.00 Build 0)  -->
<!DOCTYPE svg PUBLIC "-//W3C//DTD SVG 1.1//EN" "http://www.w3.org/Graphics/SVG/1.1/DTD/svg11.dtd">
<svg version="1.1" id="图层_1" xmlns="http://www.w3.org/2000/svg" xmlns:xlink="http://www.w3.org/1999/xlink" x="0px" y="0px"
	 width="128.08px" height="149.293px" viewBox="-45.111 -53.883 128.08 149.293"
	 enable-background="new -45.111 -53.883 128.08 149.293" xml:space="preserve">
<g id="图层_2_2_">
	<path fill="none" stroke="#000000" stroke-width="0.25" stroke-miterlimit="10" d="M29.299-49.284
		c-0.744,0.344-2.136-0.631-2.848-0.951c-1.127-0.505-2.414-0.993-3.593-1.049c-2.68-0.12-5.484,0.449-8.114,0.828
		c-2.687,0.389-5.417,1.582-7.928,2.329c-2.808,0.828-6.357,1.182-8.721,3.048c-1.723,1.358-2.627,4.666-4.968,4.971
		c-0.14-0.537-0.287-1.091-0.494-1.614c-2.108-5.266-8.908-5.841-13.769-5.585c-2.66,0.144-5.136,0.169-7.438,1.491
		c-1.28,0.733-2.298,1.901-3.477,2.817c-0.964,0.747-3.251,1.922-3.767,3.017c-0.53,1.129,0.859,2.186,1.617,3.262
		c1.066,1.512,0.982,2.273,1.15,4.09c0.274,2.891,1.214,5.459,1.796,8.181c0.582,2.733,0.972,5.227,2.14,7.771
		c0.628,1.367,1.242,2.953,2.154,4.143c0.681,0.895,2.083,1.564,2.652,2.308c1.554,2.042-0.211,5.111-1.165,7.233
		c-0.635,1.421-1.018,2.93-2.771,2.821c-1.109-0.066-1.944-0.954-2.519-1.813c-1.522-2.27-0.228-5.363-2.28-6.911
		c-2.245-1.691-3.841-2.284-4.3-5.333c-0.418-2.768-0.526-5.359-1.316-8.099c-0.744-2.579-1.863-4.837-2.472-7.272
		c-0.295-1.168-0.569-2.452-0.965-3.511c-0.522-1.393-1.642-2.137-2.473-3.43c-1.796-2.775,1.305-3.589,2.799-5.129
		c3.739-3.855,9.169-6.416,13.856-9.051c2.343-1.315,4.693-1.834,7.149-2.487c2.799-0.751,4.575-1.333,6.735,0.887
		c1.059,0.067,2.582-0.081,3.641,0.277c0.989,0.333,2.13,1.179,3.021,1.737c1.617,1.014,3.511,2.434,4.055,4.36
		c0.635,2.231-1.179,3.466-2.558,4.974c-1.712,1.871-3.55,3.099-4.676,5.42c-0.547,1.126-1.028,2.288-1.526,3.47
		c-0.558,1.33-0.393,2.596-0.997,3.768c-0.466,0.905-1.61,1.655-2.23,2.523c-0.709,0.982-1.417,2.052-2.067,3.1
		c-1.287,2.083-3.104,3.663-4.048,5.858c-1.059,2.47-2.2,4.995-3.143,7.567c-0.958,2.624-1.912,5.287-0.832,8.068
		c0.891,2.284,1.719,4.563,2.561,6.827c1.667,4.466,4.308,9.229,7.945,12.264c3.518,2.929,6.462,6.469,10.45,8.685
		c3.445,1.91,7.206,2.996,10.952,3.804c1.88,0.405,3.866,0.376,5.914,0.376c1.509,0,5.023,0.582,6.1-0.303
		c-0.627-0.078-1.217,0.007-1.743,0.309c1.347-0.176,2.687,0.302,4.077,0.165c1.318-0.13,2.619-0.526,3.932-0.705
		c2.413-0.336,4.907-0.136,7.272-0.992c2.925-1.071,5.543-2.817,8.032-4.658c1.214-0.893,2.642-2.41,4.077-2.772
		c-1.691,3.206-5.543,4.834-8.729,6.182c-4.862,2.063-9.626,3.287-15.085,3.269c-2.798-0.006-5.395-0.399-8.106-0.651
		c-2.48-0.229-5.355,0.216-7.931-0.17c-1.239-0.185-2.276-0.964-3.476-1.448c-1.274-0.526-2.46-0.693-3.673-1.491
		c-2.154-1.402-4.521-2.304-6.567-3.875c-2.077-1.597-3.866-3.628-5.795-5.418c-1.719-1.592-4.129-3.345-5.311-5.401
		c0.123-0.014,0.253-0.007,0.33-0.035c-1.039,1.666-1.463,3.739-2.083,5.635c-0.544,1.67-1.838,4.851-0.498,6.549
		c0.182-0.138,0.55-0.302,0.722-0.464c-0.035-0.15-0.105-0.252-0.091-0.452c-0.933,2.902-0.862,5.518-1.171,8.549
		c-0.28,2.845-0.758,5.463-0.33,8.265c0.39,2.533-0.161,5.115,0.457,7.605c0.656,2.631,0.396,5.374,0.708,8.104
		c0.147,1.312,0.294,2.562,0.61,3.819c0.344,1.396,0.344,2.315,0.407,3.621c0.056,1.115,0.379,2.532,0.666,3.641
		c0.421,1.614,1.214,1.291,2.547,1.648c-2.225,1.938-3.343,5.663-4.042,8.444c-0.681,2.722-2.007,6.917-0.737,9.698
		c0.088-0.571,0.007-1.146-0.133-1.712c1.361,1.642,0.729,3.054,3.149,3.453c3.116,0.526,5.501-1.115,4.343-4.666
		c-0.74-2.266-4.076-4.229-6.329-3.652c-3.023,0.797-3.887,4.67-2.157,6.827c1.638,2.049,4.462,2.813,6.746,3.813
		c2.35,1.028,4.714,3.07,7.313,3.098c2.856,0.021,4.852-0.535,7.104-2.519C2.299,87.455-4.823,81-10.056,81.19
		c-6.149,0.226-5.094,10.851-0.989,13.358c2.455,1.502,5.62,0.716,8.096,0.078c1.859-0.474,4.595-1.224,5.507-2.836
		c-0.081,0.183-0.014,0.324-0.045,0.506c0.102,0.229-0.13-0.323-0.144-0.315c0.888-0.898,2.483-0.73,3.621-1.655
		c0.933-0.758,1.958-1.362,2.799-2.225c1.874-1.908,1.718-5.017,1.332-7.402C9.35,75.97,6.593,71.746,5.687,67.138
		c-0.479-2.467-0.609-5.263-0.368-7.773c0.249-2.597,0.572-5.129-0.524-7.578c-2.482-0.424-4.041-1.087-6.292-2.309
		c-2.01-1.088-2.701-3.149-4.736-4.146c0.309,0.85,0.958,1.649,1.674,2.253c3.554,3.016,9.545,1.916,10.211,7.81
		c0.288,2.563,1.161,5.125,0.653,7.604c-0.242,1.201-0.751,2.926-0.659,4.141c0.105,1.409,1.368,2.463,0.632,3.907
		c-0.362-0.442-0.78-0.87-1.228-1.235c3.768,1.656,4.883,7.023,4.743,10.557c-0.088,2.149-0.486,5.703-1.86,7.563
		c-1.523,2.046-4.652,3.392-5.255-0.134c-0.225-1.317,0.674-2.813,1.448-3.845c0.884-1.178,1.678-1.087,2.695-1.76
		c1.196-0.794,1.554-2.08,3.168-0.721c1.034,0.875,0.652,2.024,2.588,1.678c-0.14-0.663,0.021-1.267,0.653-1.495
		c-0.091-2.504,1.249-9.969,4.308-10.908c0.53-2.813-1.032-5.867-0.436-8.862c0.562-2.819,1.671-5.661,2.113-8.637
		c0.449-3.023,2.238-3.289,4.783-4.503c2.31-1.096,4.103-2.057,6.167-3.558c2.004-1.451,3.817-2.547,5.627-4.301
		c1.496-1.446,2.54-3.224,3.943-4.6c-1.516,1.517-2.497,3.519-4.145,4.894c-1.614,1.348-3.468,2.184-5.256,3.184
		c-1.768,0.983-3.348,2.169-5.157,3.142c-0.961,0.512-1.979,1.014-2.988,1.315c-0.955,0.281-2.252,0.098-2.782,1.105
		c0.066-0.078,0.19-0.231,0.278-0.296c-1.376,2.877-1.632,6.505-1.797,9.732c-0.099,2.014-0.123,3.465-0.625,5.331
		c-0.276,1.042-1.122,4.946,0.979,4.593c-2.354,0.604-3.013,4.476-3.659,6.615c-0.386,1.268-1.228,2.003-1.488,3.298
		c-0.232,1.165,0.018,2.859,0.154,4.14c0.268,2.459,1.65,4.511,3.817,5.662c1.271,0.676,3.224,1.768,4.343,0.462
		c0.913-1.066,0.41-3.178-0.049-4.307c-0.855-2.104-4.16-4.855-6.448-5.157c-3.157-0.421-3.213,3.681-2.027,5.662
		c1.346,2.238,3.915,3.688,6.199,4.745c2.448,1.13,5.069,2.696,7.735,3.313c2.451,0.562,5.65,1.371,7.928,0
		c2.494-1.501,3.237-4.578,2.652-7.409c-0.464-2.252-3.551-4.819-5.789-5.127c-2.884-0.408-5.711,0.427-6.984,2.941
		c-3.094,6.124,2.816,10.36,8.472,9.806c2.762-0.273,5.603-0.355,8.069-1.716c2.052-1.126,4.131-2.179,5.282-4.29
		c0.982-1.825,1.817-5.845-1.115-6.413c-1.775-0.351-5.543,2.024-5.957,3.811c-0.744,3.202,3.234,4.932,5.627,3.77
		c1.056-0.521,2.042-1.443,2.322-2.611c0.368-1.552-0.463-2.239-0.843-3.468c-0.402-1.304-0.034-2.799-0.364-4.139
		c-0.288-1.153-0.855-2.294-1.41-3.346c-0.997-1.916-1.976-4.231-3.816-5.565c0.204,0.626,0.506,1.215,0.972,1.656
		c1.562-2.033,1.863-4.857,2.474-7.297c0.651-2.637,1.108-5.239,1.448-7.934c0.369-2.814,0.018-5.823,0.571-8.602
		c0.54-2.695,1.138-5.308,1.283-8.106c0.142-2.617,0.282-5.895-0.322-8.392c-0.525-2.16-1.023-4.136-1.817-6.195
		c-0.631-1.635-0.819-2.746-0.023-4.343c1.926-3.87,4.361-7.265,5.631-11.503c1.48-4.938,1.48-10.074,0.37-15.241
		c-1.104-5.161,0.983-10.506,0.458-15.667c-0.366-3.605-1.868-6.889,2.405-8.289c3.845-1.256,8.454-0.344,11.772,1.876
		c1.277,0.85,1.874,1.982,2.652,3.259c0.758,1.246,1.797,2.102,2.564,3.312c0.754,1.189,1.256,2.505,2.06,3.673
		c0.764,1.108,2.098,2.188,2.023,3.6c-0.088,2.014-1.441,1.272-2.804,1.816c-1.111,0.45-1.571,1.334-2.153,2.481
		c-1.312,2.578-2.911,4.855-4.588,7.279c-1.775,2.56-3.616,5.072-5.95,7.152c-1.815,1.62-4.097,2.903-6.032,4.385
		c-0.818,0.624-2.19,1.344-3.242,1.168c-0.786-2.455,0.204-5.549,0.302-8.078c0.112-2.74-0.279-5.515,0-8.269
		c0.288-2.807,0.14-5.251,0-8.1c-0.196-4.014,0.302-7.977-0.06-12c-0.176-1.958-0.066-4.845-1.098-6.56
		c-1.15,2.175-0.594,5.371-0.284,7.707c0.558,4.185,1.302,8.338,1.929,12.509c0.39,2.652,0.277,5.41,0.678,8.101
		c0.367,2.494,0.509,5.173-0.008,7.773c-0.919,4.659-4.22,9.578-3.185,14.383c0.716,3.325,2.704,4.241,5.171,1.479
		c1.849-2.058,3.209-4.219,5.608-5.98c2.038-1.49,4.02-2.838,6.132-4.135c2.228-1.372,3.813-3.908,5.588-5.754
		c1.898-1.976,3.46-4.175,5.115-6.318c1.614-2.08,3.23-4.072,6.132-3.455c0.372-2.248,0.61-3.192-0.59-5.265
		c-0.849-1.47-1.609-2.996-2.393-4.458c-1.677-3.137-3.651-5.597-5.791-8.561c-2.811-3.889-6.108-7.797-10.829-9.345
		c-0.729-0.235-1.164-0.045-1.824-0.084c-0.222-0.014-0.516,0.369-0.87,0.305c-0.302-0.056-0.302-0.561-0.617-0.677
		c-1.348-0.495-2.357-0.459-3.841-0.316c-1.804,0.172-3.609,0.478-5.364,0.926c-2.236,0.572-2.021-0.192-3.445-1.891
		c-1.297-1.547-2.557-3.361-4.089-4.659c-1.6-1.361-3.34-2.357-4.953-3.676c-1.938-1.582-2.835-2.554-5.101-3.473
		c-0.836-0.337-1.544-0.919-2.478-1.172c-0.792-0.214-2.476-0.07-2.848-0.614"/>
</g>
<g id="图层_3_1_">
	<path fill="none" stroke="#000000" stroke-width="0.25" stroke-miterlimit="10" d="M46.162,38.022
		c5.272-1.456,10.12,3.778,13.063,7.605c1.954,2.554,3.294,4.385,4.171,7.437c0.839,2.922,0.913,4.932-0.037,7.767
		c-0.653,1.936-1.172,3.833-1.783,5.669c-0.533,1.617-0.867,4.525-2.354,5.563c-1.097-2.07-1.739-3.305-3.907-4.256
		c1.428,1.053,2.906,2.659,3.619,4.235c0.552,1.205,1.222,4.209,0.64,5.457c2.399,0.759,1.834,4.617,0.614,6.118
		c-1.783,2.183-5.795,1.417-5.098-1.943c0.555-2.666,5.08-4.139,6.452-1.487c1.359,2.621-2.365,4.995-4.168,6.068
		c-1.399,0.824-3.195,1.912-4.765,2.32c-1.907,0.497-4.355-0.254-6.097,0.328c3.035,0.334,7.282-0.564,6.723-4.384
		c-0.274-1.888-1.187-2.947-2.766-4.049c-1.688-1.178-2.693-1.038-4.777-1.144c0.575-2.347-0.678-6.388-2.638-7.963
		c-0.063-0.057-0.069-0.057-0.004,0.008c2.179,0.974,5.848,0.343,8.251,0.7c2.81,0.422,4.486,1.558,6.535,3.495
		c-1.888-1.752-3.922-2.744-6.374-3.291c-2.171-0.477-5.519-0.582-7.426,0.789c0.719,2.061,2.525,3.943,2.817,6.094
		c3.237-0.19,5.377,1.438,5.061,4.784c-0.33,3.521-2.321,3.275-4.574,4.799c4.784,0.362,10.419-1.758,13.253-5.746
		c0.94-1.326,0.652-4.697-0.042-6.125c-0.428-0.869-1.206-1.479-1.655-2.318c-0.582-1.08-0.438-2.272-0.633-3.445
		c4.424,0.348,5.081-10.474,4.934-13.579c-0.14-2.907-0.516-5.595-1.775-8.274c-1.165-2.464-3.901-4.658-6.125-6.153
		c-1.718-1.153-3.571-2.179-5.289-3.312c-0.954-0.625-3.631-2.448-4.67-2.273"/>
	<path fill="none" stroke="#000000" stroke-width="0.25" stroke-miterlimit="10" d="M-24.937,38.022
		c0.183,0.073,0.105,0.267,0.309,0.309c-1.515-1.441-5.908,2.592-7.127,3.445c-2.25,1.586-4.399,4.1-6.118,6.325
		c-1.694,2.191-3.845,4.391-4.133,7.278c-0.266,2.666,0.295,5.948,1.326,8.437c1.642,3.964,4.419,7.935,6.609,11.563
		c0.046-2.408,3.073-5.037,4.764-6.447c-2.291,2.055-3.003,3.864-4.069,6.614c-1.003,2.622-3.087,4.87-1.024,7.493
		c1.34,1.716,5.051,3.087,5.999-0.042c1.066-3.557-3.283-4.483-5.634-3.144c-3.736,2.134,1.291,5.003,3.108,6.659
		c1.989,1.81,4.967,2.605,7.591,2.771c-3.014-0.54-4.076-1.725-4.083-4.799c-0.007-3.619,1.411-4.743,4.904-4.799
		c-1.095,0.302-2.778,0.14-3.743,0.948c-1.168,0.972-0.828,2.767-0.828,3.879c0-3.149,0.425-6.089,4.108-4.553
		c0.33-2.345,1.151-5.287,2.491-7.339c-3.196-1.253-6.806,1.102-9.717,2.319c-0.063,0.063-0.059,0.063,0.007,0.006
		c1.723-2.104,5.918-3.038,8.539-2.841c0.477,1.516,0.081,4.209-0.302,5.764c-0.14,0.557-0.642,2.301-1.119,2.654
		c-0.817,0.611-1.347-0.248-2.354,0.022c-1.965,0.54-2.393,3.519-1.782,5.097c0.554,1.441,2.701,2.81,4.23,3.004
		c-0.007,0.062-0.014,0.382,0,0.441c-2.375,1.354-9.422-2.923-11.18-4.779c-3.182-3.363-0.824-6.973,1.14-10.246
		c-4.196-2.512-5.83-9.001-7.177-13.352c-0.758-2.447-0.277-5.795,1.038-7.977c0.653-1.091,1.348-1.828,1.856-2.976
		c0.509-1.157,0.87-2.35,1.498-3.438c1.347-2.321,3.354-3.675,5.581-5.037c1.084-0.659,5.381-3.599,6.114-2.768"/>
	<path fill="none" stroke="#000000" stroke-width="0.25" stroke-miterlimit="10" d="M-6.913-34.071
		c-0.526-0.841,7.815-4.233,9.057-4.5c1.628-0.362,2.975-0.509,4.335,0.575c1.165,0.93,1.685,2.417,2.983,3.263"/>
	<path fill="none" stroke="#000000" stroke-width="0.25" stroke-miterlimit="10" d="M36.403-28.945
		c1.568-1.06,2.667-2.336,4.596-1.617c0.876,0.326,2.272,1.368,2.855,2.112c0.975,1.234,1.172,2.998,1.684,4.466
		c0.54,1.543,1.347,3.146,1.487,4.767c0.231,0.298,0.057-0.018,0.127-0.138"/>
	<path fill="none" stroke="#000000" stroke-width="0.25" stroke-miterlimit="10" d="M34.748-19.025
		c0.168-2.234,3.812-1.95,5.289-1.648c2.968,0.606,3.291,3.462,4.777,5.627"/>
	<path fill="none" stroke="#000000" stroke-width="0.25" stroke-miterlimit="10" d="M5.652-26.132
		c-0.75-2.722-2.35-4.767-4.953-5.29c-2.322-0.459-6.557-0.094-8.602,1.246c0.161-0.046,0.323-0.074,0.491-0.091"/>
	<path fill="none" stroke="#000000" stroke-width="0.25" stroke-miterlimit="10" d="M6.809-15.053
		c2.425-2.488,8.525-0.804,11.072,0.537c2.335,1.234,6.889,3.412,7.752,6.051c-0.168,0.046-0.302,0-0.47,0.028"/>
	<path fill="none" stroke="#000000" stroke-width="0.25" stroke-miterlimit="10" d="M1.351-5.136
		c2.378,0.028,4.518-0.239,6.954,0.161c2.364,0.389,4.672,0.509,6.941,1.167c2.989,0.868,7.644,2.695,8.908,5.911
		c-0.222,0.061-0.422,0.155-0.64,0.204"/>
	<path fill="none" stroke="#000000" stroke-width="0.25" stroke-miterlimit="10" d="M0.032,6.6C4.074,4.012,7.911,5.92,11.78,7.758
		c1.947,0.926,4.009,2.365,4.599,4.477c-0.176,0.232-0.26,0.08-0.47,0.154"/>
	<path fill="none" stroke="#000000" stroke-width="0.25" stroke-miterlimit="10" d="M3.506,23.801
		c1.076-3.032,8.57-2.232,7.935-0.17"/>
	<path fill="none" stroke="#000000" stroke-width="0.25" stroke-miterlimit="10" d="M6.151,35.54
		c2.456-1.073,4.577-1.143,7.085-0.301c0.078,0.352-0.126,0.436-0.309,0.631"/>
	<path fill="none" stroke="#000000" stroke-width="0.25" stroke-miterlimit="10" d="M12.928,45.627
		c1.824-0.366,3.624-0.864,5.427-1.18c0.094-0.256,0.195-0.536,0.195-0.807"/>
	<path fill="none" stroke="#000000" stroke-width="0.25" stroke-miterlimit="10" d="M-12.54-6.789
		C-6.194-5.393-5.714,2.7-4.637,7.758c1.092,5.118,0.562,10.65,1.526,15.713c0.463,2.452,1.452,4.669,1.985,7.11
		c0.516,2.389,2.357,5.283,3.68,7.415c1.225,1.976,3.077,3.449,4.462,5.266c1.252,1.642,2.767,3.536,4.447,4.014
		c-0.574-0.169-1.084-0.169-1.624,0.041c4.505,1.422,10.391,1.828,13.797-2.22c0.866-1.031,1.112-2.231,0.575-3.438
		c-0.62-1.421-1.54-1.421-2.982-1.856c-1.132-0.343-2.438-0.971-3.671-0.961c-1.124,0.011-3.171,1.72-1.347,1.628
		c-0.681-2.357-0.544-5.371-0.796-7.906c-0.144-1.467-0.189-2.835,0.031-4.302c0.208-1.382-0.094-2.75,0.127-4.129
		c0.336-2.079,1.698-4.857,2.844-6.78c1.246-2.07,2.838-3.344,4.765-4.586c0.494-0.314,0.978-0.623,1.413-1.048
		c-0.049,0.021-0.073,0.056-0.077,0.103c0.126-0.057,0.315-0.106,0.452-0.124c-1.435-2.838,9.584-7.201,10.963-5.756
		c-1.733,0-3.774,0.168-4.799,1.616c4.069,2.036,9.625,1.256,14.004,0.727c0.988,2.61-0.412,3.185-2.617,3.82
		c-1.969,0.568-4.087,1.154-6.118,1.452c-1.9,0.28-4.314,0.436-6.286,0.319c-1.394-0.078-5.107-1.351-5.318-2.961
		c-2.992,2.526-5.438,5.894-8.387,8.377c1.333,0.555,0.663,1.501,2.459,1.656c1.382,0.119,3.136-0.315,4.47-0.582
		c2.339-0.471,5.744-1.639,6.265-4.313c-1.172-0.246-2.214-1.037-3.403-1.363c1.241,0.516,2.561,0.712,2.765,2.163
		c0.141,1.042-0.736,2.979-1.463,3.614c0.986-1.866,1.69-2.284,1.334-4.432c0.359,6.167-10.595,1.863-12.142,5.41
		c-0.47,1.073-0.204,2.555-0.424,3.708c-0.298,1.558-0.951,2.613-1.027,4.266c-0.12,2.459-1.168,5.603-0.66,7.938
		c0.232,1.053,0.947,1.975,1.446,2.792c1.03-1.975,5.669-0.885,7.029,0.13c2.14,1.613,2.31,3.925,0.498,5.876
		c-1.684,1.81-4.735,2.487-7.155,2.609c-1.397,0.074-2.729,0.457-4.137,0.337c-0.487-0.034-1.47-0.225-1.852-0.47
		c-0.74-0.463-0.502-1.031-0.99-1.487c-0.754-0.705-2.234-0.898-3.154-1.648c-1.031-0.847-1.83-1.866-2.476-3.01
		c-1.39-2.47-2.457-4.999-3.136-7.612c-0.681-2.62-1.898-5.003-2.453-7.603c-0.551-2.592-0.449-5.266-1.273-7.773
		c-0.807-2.445-1.817-4.69-1.884-7.247c-1.757-0.484-2.375-1.543-2.775-3.168c-0.301-1.206-0.449-5.14,1.634-2.996
		c-1.549-3.596-4.451,0.695-5.297,2.12c0.428-0.71,0.758-1.678,1.309-2.306c0.635-0.73,1.119-0.561,1.853-0.954
		c1.35-0.716,1.452-1.831,2.291-2.939c-0.691-0.432-0.737-2.038-1.417-2.898c-0.492-0.614-1.34-1.803-1.828-2.301
		c-0.877-0.894-2.01-0.428-3.343-0.782c-1.032-0.27-2.512-0.978-3.438-1.533c-1.909-1.14-3.465-2.838-5.367-3.897
		c-3.346-1.866-0.975,2.835-0.083,4.221c1.768,2.729,4.016,5.647,6.896,7.321c2.462,1.424,7.181,3.065,9.243,0.361
		c-0.169-0.05-0.312-0.003-0.477-0.031"/>
	<path fill="none" stroke="#000000" stroke-width="0.25" stroke-miterlimit="10" d="M27.812,54.551
		c0.256,0.161,2.981-0.779,3.967-0.825c1.348-0.07,2.682,0.04,3.969,0.17c2.922,0.288,4.359,1.518,6.265,3.771
		c-0.31,0.034-0.663,0.07-0.972,0.028"/>
	<path fill="none" stroke="#000000" stroke-width="0.25" stroke-miterlimit="10" d="M39.714,59.68
		c0.314-0.113,0.583-0.197,0.937-0.176c-1.526,2.153-4.697-0.035-5.735-1.144"/>
	<path fill="none" stroke="#000000" stroke-width="0.25" stroke-miterlimit="10" d="M29.955,58.855
		c1.391-0.48,4.372,3.199,5.919,3.768c1.693,0.618,4.044,0.831,5.799,0.344c0.14-0.316-0.086-0.322-0.141-0.47"/>
	<path fill="none" stroke="#000000" stroke-width="0.25" stroke-miterlimit="10" d="M23.342,75.22
		c2.365-2.295,8.925-2.273,11.909-1.614c1.79,0.394,3.943,1.193,5.399,2.321c-0.153,0.17-0.274,0.051-0.441,0.116"/>
	<path fill="none" stroke="#000000" stroke-width="0.25" stroke-miterlimit="10" d="M52.112,54.225
		c0.515-3.003,6.75-0.688,8.249,0.375c-0.174,0.273-0.455,0.379-0.806,0.449"/>
	<path fill="none" stroke="#000000" stroke-width="0.25" stroke-miterlimit="10" d="M56.248,55.049
		c0.729,0.112,4.777,2.861,4.136,0.996"/>
	<path fill="none" stroke="#000000" stroke-width="0.25" stroke-miterlimit="10" d="M-18.819,56.705
		c1.729-1.628,6.111-3.368,8.437-3.445c1.428-0.042,3.343,0.688,4.188,1.937c-0.045-0.113-0.301-0.073-0.554-0.147"/>
	<path fill="none" stroke="#000000" stroke-width="0.25" stroke-miterlimit="10" d="M-18.819,59.185
		c1.253-1.781,5.444-3.585,6.911-1.312c2.147,3.311-2.329,2.371-3.936,1.312"/>
	<path fill="none" stroke="#000000" stroke-width="0.25" stroke-miterlimit="10" d="M-16.668,63.153
		c1.729,1.824,9.671,0.182,10.085-2.147"/>
	<path fill="none" stroke="#000000" stroke-width="0.25" stroke-miterlimit="10" d="M-18.819,76.22
		c3.042-1.192,6.469-3.056,9.759-3.277c2.806-0.192,3.634,1.397,5.595,2.835c0,0.007-0.298-0.015-0.474-0.061"/>
	<path fill="none" stroke="#000000" stroke-width="0.25" stroke-miterlimit="10" d="M-38.166,54.551
		c-0.27,0.103-0.456,0.274-0.565,0.504c1.951-1.071,5.161-1.605,7.318-0.8c0.119,0.384-0.063,0.521-0.302,0.794"/>
	<path fill="none" stroke="#000000" stroke-width="0.25" stroke-miterlimit="10" d="M-37.67,58.193
		c1.091,0.175,3.339-0.345,4.297-1.487"/>
	<path fill="none" stroke="#000000" stroke-width="0.25" stroke-miterlimit="10" d="M-10.056-22.827
		c2.866-3.301,8.23-8.146,12.109-3.347c2.992,3.701,4.182,9.584-0.859,12.113c-2.733,1.374-7.072,1.276-8.072-2.355
		c-0.379-1.398-0.305-3.689-0.372-5.093c-0.07-1.414,0.239-3.354,0.85-4.571C-8.33-21.385-5.04-14.096,0.566-15.844
		c5.794-1.802,3.843-8.485,0.252-11.734c-4.718-4.262-9.92,2.463-6.777,7.234c1.427,2.174,3.228,4.093,5.991,3.967
		c2.667-0.124,4.947-2.697,4.293-5.121c-0.94-3.478-5.244-10.654-9.46-6.497c-3.848,3.799,0.298,11.172,5.329,10.952
		c6.84-0.3,3.483-9.198-1.158-10.546c-2.757-0.8-5.416-0.102-5.465,3.105c-0.039,2.666,1.771,5.212,4.308,6.163
		c2.102,0.786,5.901,1.466,6.283-1.533c0.262-2.066-1.723-5.707-3.188-7.071c-2.12-1.979-4.231-1.277-5.785,1.076
		c-1.835,2.779,0.403,5.876,2.855,7.321c2.01,1.18,5.655,1.407,6.282-1.326c0.506-2.182-0.252-5.139-1.768-6.657
		c-1.561-1.554-4.711-2.554-6.37-0.622c-1.846,2.14-0.081,5.546,1.684,7.153c1.621,1.47,5.84,2.385,6.454-0.533
		c0.45-2.141-1.631-5.112-3.304-6.28c-2.673-1.858-4.89-0.098-4.631,3.133c0.19,2.354,2.417,4.743,4.634,5.293
		c7.082,1.747,0.502-11.973-2.48-7.279c-1.179,1.852-0.478,5.887,1.649,6.917c3.326,1.613,4.101-2.168,3.304-4.426
		c-0.838-2.403-4.093-4.494-4.462-0.667c-0.154,1.621,1.768,6.339,4.14,4.799c1.845-1.196-0.225-6.577-2.123-5.585
		c-2.14,1.116,0.084,7.188,1.954,4.753c1.168-1.53-0.386-6.967-2.947-5.089c-1.772,1.297-0.961,6.991,1.789,6.743
		c3.171-0.295,1.736-5.031,0.54-6.627c-2.904-3.863-5.493-0.184-3.89,3.364c1.688,3.733,5.616,3.189,4.683-1.21
		c-0.702-3.277-6.392-6.491-6.63-1.315c-0.127,2.852,4.384,9.43,6.746,4.833c1.305-2.542-0.719-7.791-3.768-7.98
		c-7.524-0.466-3.231,14.109,3.01,8.812c2.371-2.013,0.656-5.371-1.056-7.314c-2.456-2.778-4.497-1.536-7.041,0.197
		c-1.245,0.852-2.768,1.364-4.002,2.108"/>
	<path fill="none" stroke="#000000" stroke-width="0.25" stroke-miterlimit="10" d="M45.501-8.771
		c-0.479-1.423,0.005-2.865-0.619-4.301c-0.517-1.178-1.422-2.294-2.361-3.142c-2.102-1.892-4.581-1.776-7.069-0.611
		c-1.803,0.842-4.415,2.151-5.7,3.757c-1.585,1.993-0.593,5.511,0.909,7.398c3.483,4.378,10.432,2.652,12.189-2.445
		c0.884-2.56,1.006-4.613-0.684-6.931c-1.765-2.414-4.463-2.2-6.906-0.958c-2.357,1.2-4.6,2.543-4.632,5.427
		c-0.021,2.75,1.936,4.35,4.632,5.113c3.041,0.863,4.285-0.603,6.31-2.802c1.94-2.105,2.286-4.965,0.137-7.161
		c-3.732-3.805-12.529-0.048-10.587,5.491c2.168,6.17,11.107,4.255,11.408-1.975c0.057-1.08-0.394-3.034-0.989-3.978
		c-0.832-1.312-2.111-1.183-3.474-1.319c-2.531-0.252-4.841,0.95-5.99,3.437c-1.068,2.302,0.098,6.153,2.688,7.157
		c2.68,1.038,5.521-0.838,6.811-3.14c1.138-2.021,1.176-6.721-1.69-6.953c-2.188-0.176-5.806,0.14-7.072,2.154
		c-1.163,1.852-0.617,6.339,1.438,7.567c2.295,1.357,5.78-1.688,6.998-3.396c1.544-2.175,0.846-5.659-2.023-6.16
		c-2.726-0.477-5.879,0.586-7.075,3.183c-1.26,2.726,0.845,5.626,3.765,5.749c2.139,0.09,5.473-3.495,5.914-5.621
		c1.122-5.401-13.17-4.02-8.194,3.439c1.725,2.588,4.664,1.964,6.125-0.625c1.642-2.912,1.894-5.258-1.868-5.458
		c-2.299-0.123-5.689,1.33-5.297,4.14c0.442,3.122,3.77,4.237,5.965,2.014c1.915-1.944,2.47-6.265-1-6.645
		c-2.655-0.292-5.765,2.144-4.925,4.961c0.936,3.121,5.534,1.764,6.117-0.826c0.649-2.855-1.477-5.076-4.289-3.595
		c-2.4,1.255-2.909,4.753-0.331,6.364c1.958,1.212,5.81-2.021,5.916-4.259c0.104-2.351-5.018-2.516-6.329-1.167
		c-1.576,1.614-1.488,6.643,1.701,5.973c2.157-0.452,4.6-5.157,1.813-6.257c-2.455-0.976-6.406,1.216-4.961,4.093
		c1.41,2.81,5.642,0.744,5.291-2.151c-0.474-3.872-5.156-3.08-5.467,0.496c-0.344,4.002,4.533,1.757,5.509-0.326
		c1.726-3.687-3.817-2.919-5.136-0.793c-1.845,2.981,1.88,5.515,4.594,5.093c2.437-0.378,5.836-4.03,3.432-6.243
		c-3.999-3.669-14.018,2.753-7.57,6.773c3.157,1.972,5.083,0.096,7.276-2.052c1.094-1.077,1.852-1.733,1.494-3.441
		c-0.26-1.251-1.141-2.473-2.476-2.775c-4.568-1.03-11.854,6.424-6.245,9.848c2.61,1.588,6.273,0.382,8.019-1.783
		c2.088-2.582,1.93-4.945,0.19-7.707c0.953,1.242,2.104,2.537,2.869,3.895c0.624,1.104,0.75,3.522,1.915,3.956
		c0.112-0.424,0.021-0.774-0.14-1.14"/>
</g>
</svg>
