<?xml version="1.0" encoding="utf-8"?>
<!-- Generator: Adobe Illustrator 16.0.0, SVG Export Plug-In . SVG Version: 6.00 Build 0)  -->
<!DOCTYPE svg PUBLIC "-//W3C//DTD SVG 1.1//EN" "http://www.w3.org/Graphics/SVG/1.1/DTD/svg11.dtd">
<svg version="1.1" id="图层_1" xmlns="http://www.w3.org/2000/svg" xmlns:xlink="http://www.w3.org/1999/xlink" x="0px" y="0px"
	 width="485.146px" height="298.23px" viewBox="0 0 485.146 298.23" enable-background="new 0 0 485.146 298.23"
	 xml:space="preserve">
<g id="图层_1_1_" display="none" opacity="0.7">
	
		<image display="inline" overflow="visible" enable-background="new    " width="1920" height="909" xlink:href="B526C36D.png"  transform="matrix(0.3092 0 0 0.3092 2.445579e-004 6.509)">
	</image>
</g>
<g id="图层_2">
	<path fill="none" stroke="#000000" stroke-width="7" stroke-miterlimit="10" d="M160.667,42.897c3.318-6.237,5.71-15.539-4-17.866
		c-6.539-1.567-9.59,5.705-13.186,10.053c-7.022,8.49-14.733,21.632-13.479,33.11c1.454,13.299,15.785,17.322,26.648,11.368
		c18.593-10.19,25.162-33.581,26.031-52.814c0.459-10.171-2.991-19.921-15.349-16.365c-7.362,2.118-15.406,14.139-18.667,19.183"/>
	<path fill="none" stroke="#000000" stroke-width="7" stroke-miterlimit="10" d="M217.333,42.897
		c2.398-11.782-5.599-24.023-17.333-13.331c-4.313,3.931-5.947,10.283-5.333,15.998c0.714,6.644,4.593,8.309,8.682,13.333
		c5.611,6.896,7.729,24.179-4.833,25.851c-5.861,0.779-12.744-7.063-13.881-12.517c-1.373-6.58,4.31-9.323,6.045-14.749
		c-2.907,4.942-7.355,20.807,2.473,24.264c12.123,4.264,16.08-10.885,13.032-19.548c-2.45-6.967-11.651-19.004-7.516-26.632
		c4.98-9.186,20.845-6.026,19.998,5.331"/>
	<path fill="none" stroke="#000000" stroke-width="7" stroke-miterlimit="10" d="M250,45.564c1.982-4.56-0.948-10.828-6-12.031
		c-5.026-1.198-11.191,4.013-14.815,6.698c-9.697,7.188-16.687,16.657-16.519,29.333c0.217,16.34,10.861,11.789,20.665,4.002
		C239.875,68.369,250.592,54.104,250,45.1c-0.778,10.734-11.665,19.715-11.333,30.465c0.169,5.5,3.318,9.834,9.353,8.018
		c5.593-1.685,5.719-7.142,7.445-11.351c2.392-5.833,6.232-9.934,7.87-16.003c1.532-5.683,2.375-10.991,3.48-16.664
		c1.622-8.315,3.911-22.058,10.552-27.767c0.566,13.937-12.365,26.825-11.897,41.031c4.323-2.815,8.305-9.293,13.198-11.114
		c5.246-1.951,6.251,1.274,11.217,3.299c1.325,10.362-10.938,23.542-21.685,22.52c8.86,3.5,9.786,15.68,16.517,21.429
		c-0.038,0.504-0.067,0.516-0.086,0.034c4.079-12.441,6.016-24.106,16.704-33.282c4.339-3.727,8.307-7.256,14-8.111
		c4.563-0.687,12.609,0.548,11.2,7.229c-5.961-7.191-8.485-8.518-17.217-2.597c-6.895,4.678-16.075,13.488-16.686,22.517
		c-0.823,12.188,11.385,10.634,17.35,4.813c5.647-5.513,10.138-13.849,12.698-21.13c-1.246,8.534-12.731,21.307-8.547,30.465
		c6.589,14.421,16.236-11.98,19.767-13.948c-0.206,3.503-10.408,19.207-14.529,19.313c-8.016,0.205-2.58-15.279-2.818-19.945
		c-6.285,1.647-8.612,10.729-15.869,11.265c-9.516,0.699-5.973-10.918-3.867-16.52c2.979-7.925,23.236-27.211,30.401-14.897
		c-0.075-14.543-24.583,0.176-29.051,5.567c-7.462,9.01-12.045,21.144-18.199,30.932c0.049-9.28-7.849-15.247-9.883-23.65
		c6.958-1.238,18.537-8.145,19.264-16.778c1.379-16.392-18.719,0.374-23.944-0.135c8.258-9.274,11.967-26.095,9.799-38.466
		c-6.679,5.409-7.77,23.739-9.72,31.947c-2.324,9.786-2.844,22.104-8.633,30.8c-4.544,6.824-17.523,14.861-18.183,1.852
		c-0.501-9.91,10.585-17.985,11.852-27.481c0.371-2.777,0.826-4.618-1.185-3.853"/>
	<path fill="none" stroke="#000000" stroke-width="7" stroke-miterlimit="10" d="M130,101.564c-1.893,0.387,2.186,1.069,3.988,1.517
		c5.147,1.272,10.138,0.793,15.357,1.136c5.095,0.335,14.418,2.104,14.653,7.349"/>
	<path fill="none" stroke="#000000" stroke-width="7" stroke-miterlimit="10" d="M138,140.897c7.874,0,16.749-0.701,23.764,2.733
		c-0.985-0.609-2.043-0.991-3.098-1.399"/>
	<path fill="none" stroke="#000000" stroke-width="7" stroke-miterlimit="10" d="M136.667,104.897
		c-0.578,9.554,0.807,20.209,1.299,29.853c0.509,9.979,0.156,20.174,0.85,30.109c0.622-1.016,0.503-2.425,0.52-3.962"/>
	<path fill="none" stroke="#000000" stroke-width="7" stroke-miterlimit="10" d="M204.667,104.231
		c-16.689,2.533-26.406,15.2-29.981,31.141c-2.32,10.351-4.269,26.886,3.968,35.41c6.32,6.541,17.625,9.171,25.348,4.016
		c16.176-10.802,28.542-36.034,19.349-54.449c-3.644-7.301-21.096-20.185-28.682-11.45"/>
	<path fill="none" stroke="#000000" stroke-width="7" stroke-miterlimit="10" d="M263.333,112.897
		c-4.117-4.124-10.144-1.488-13.815,1.953c-8.679,8.134-8.592,22.394-8.198,33.365c0.664,18.489,11.038,40.892,29.009,21.722
		c10.994-11.729,19.003-38.313,8.373-52.421c-3.204-4.251-19.134-10.573-22.035-4.619"/>
	<path fill="none" stroke="#000000" stroke-width="7" stroke-miterlimit="10" d="M297.333,116.897
		c3.536,9.205,1.738,24.315,1.998,34.229c0.211,8.092-0.339,16.284,0.103,24.337c7.4,0.373,19.635,1.579,25.731-4.032
		c5.387-4.957,4.169-19.13,4.167-25.867c-0.002-8.757,0.079-20.244-6.019-27.185c-5.85-6.658-21.052-5.825-26.647,1.185"/>
	<path fill="none" stroke="#000000" stroke-width="7" stroke-miterlimit="10" d="M140,190.897
		c-5.697,15.442-6.709,36.108-5.899,52.563c9.516-0.347,16.308-0.526,25.915,1.419c8.77,1.773,16.371,0.183,24.598-1.165
		c-15.81,2.05-35.813-1.842-50.612-2.817"/>
	<path fill="none" stroke="#000000" stroke-width="7" stroke-miterlimit="10" d="M260.634,252.958
		C257,244.564,260,231.564,250,229.564c-12-3-23-2-35,0c-3,1-7,1-8.333,4"/>
	<path fill="none" stroke="#000000" stroke-width="7" stroke-miterlimit="10" d="M200.667,243.564c0.333-1,0.333-3,0.333-4
		c3-6,8-10,12-16c5-9,9-18,15-27c2-3,6-3,8-2c3,2,6,4,8,8c7,16,14,32,17.09,49.541"/>
	<path fill="none" stroke="#000000" stroke-width="7" stroke-miterlimit="10" d="M286.667,194.231
		c-2.856,6.524,0.413,18.403,0.016,25.807c-0.241,4.487-5.491,22.753-1.88,26.726c4.422,4.865,24.968-2.105,29.865-4.658
		c8.265-4.307,17.273-9.975,9.364-20.538c-7.716-10.305-27.33-4.225-37.163-2.671c9.752-1.535,40.588,1.461,39.131-13.998
		c-0.845-8.96-11.06-9.038-18.666-8.664c-7.365,0.363-16.393-0.094-22-1.336"/>
	<path fill="none" stroke="#000000" stroke-width="7" stroke-miterlimit="10" d="M79.333,10.897
		c-2.226,19.227-4.667,38.099-4.667,57.867c0,17.669-4,34.429-4,52.097c0,23.908-2.557,48.185-1.35,72.036
		c0.717,14.143,0.795,29.27,0.017,44c-0.816,15.423,0.817,32.566-0.667,48"/>
	<path fill="none" stroke="#000000" stroke-width="7" stroke-miterlimit="10" d="M390.666,10.231c0.054,0.497-0.17,0.72-0.666,0.666
		"/>
	<path fill="none" stroke="#000000" stroke-width="7" stroke-miterlimit="10" d="M382,8.897c-0.967,9.751-0.521,23.854,0.147,35.167
		c0.99,16.763-1.763,33.476-0.147,50.218c1.864,19.354-0.463,39.27-2.017,58.45c-1.389,17.152-1.299,34.428-1.983,51.664
		c-0.711,17.855,0.974,36.459-1.367,53.985c-1.558,11.655,1.813,22.293,1.367,33.85"/>
	<path fill="none" stroke="#000000" stroke-width="7" stroke-miterlimit="10" d="M3.333,154.897c-0.829-1.734,1.115-0.121,3.317,0
		c2.707,0.149,5.291,0.515,8.034,0.667c7.116,0.397,14.196,0.282,21.183,1.834c7.714,1.713,16.59,3.584,23.466,5.499"/>
	<path fill="none" stroke="#000000" stroke-width="7" stroke-miterlimit="10" d="M4,224.231c17.335-6.648,40.353-1.124,58.55-2.101
		c0.583-1.378,1.032-3.049,0.783-4.566"/>
	<path fill="none" stroke="#000000" stroke-width="7" stroke-miterlimit="10" d="M438.666,61.564
		c7.506-3.874,19.105-0.602,26.862,0.832c6.209,1.147,14.039,1.199,19.618,4.017c-0.639,0.646-1.107,0.231-1.814,0.484"/>
	<path fill="none" stroke="#000000" stroke-width="7" stroke-miterlimit="10" d="M435.332,146.231
		c6.503-3.667,13.972,2.46,20.619,3.328c8.38,1.095,16.805-1.106,25.195-0.514c-0.632,0.686-1.103,0.258-1.814,0.519"/>
	<path fill="none" stroke="#000000" stroke-width="7" stroke-miterlimit="10" d="M440.666,180.897
		c7.067,2.165,44.714,4.005,46.666,0.667"/>
	<path fill="none" stroke="#000000" stroke-width="7" stroke-miterlimit="10" d="M430.666,270.897
		c14.898,6.409,34.418-1.862,49.946-0.518c-0.148,0.963-0.646,0.172-1.28,0.518"/>
	<path fill="none" stroke="#000000" stroke-width="7" stroke-miterlimit="10" d="M1.333,2.898C4.14,2.615,6.14,2.615,9.14,2.615
		c5-2,11-2,16-3c9,0,19,0,28,0c83,0,165,5,248,9c43,1,85-2,128,1c18,2,35,3,53.225,5.851"/>
	<path fill="none" stroke="#000000" stroke-width="7" stroke-miterlimit="10" d="M2.667,281.564
		c-0.284-0.017-0.705-0.137-1.008-0.089c1.573-1.175,5.194-0.714,7.187-0.765c20.294-0.095,39.294,2.905,59.294,1.905
		c89-3,178,4,267,0c18,0,37,0,55,0c14,1,29,1,43,2c16,2,32,3,47.826,5.725"/>
</g>
</svg>
