<?xml version="1.0" encoding="utf-8"?>
<!-- Generator: Adobe Illustrator 16.0.0, SVG Export Plug-In . SVG Version: 6.00 Build 0)  -->
<!DOCTYPE svg PUBLIC "-//W3C//DTD SVG 1.1//EN" "http://www.w3.org/Graphics/SVG/1.1/DTD/svg11.dtd">
<svg version="1.1" id="图层_2" xmlns="http://www.w3.org/2000/svg" xmlns:xlink="http://www.w3.org/1999/xlink" x="0px" y="0px"
	 width="585.728px" height="377px" viewBox="-135.395 -84.082 585.728 377" enable-background="new -135.395 -84.082 585.728 377"
	 xml:space="preserve">
<path fill="none" stroke="#000000" stroke-width="0.5" stroke-miterlimit="10" d="M162.503-74.453
	c-14.063,0.579-27.46,11.979-40.11,17.977c-14.857,7.052-31.044,11.502-45.113,20.032c-14.493,8.785-29.784,16.686-44.894,24.25
	C25.472-8.729,18.947-4.104,11.818-1.078c-3.737,1.588-8,2.724-11.714,5.004c-3.592,2.208-6.324,5.425-10.126,7.35
	c-1.452,0.736-2.632,1.416-4.381,1.32c2.045,1.093,4.566,4.134,5.894,5.43C-0.84,19.688,6.254,11.158,12.796,7.61
	c7.19-3.896,14.359-8.133,21.167-12.475c12.732-8.122,26.622-13.442,40.49-19.2c15.402-6.397,29.96-12.861,45.016-20.677
	c6.902-3.582,13.886-6.752,21.021-9.757c6.237-2.627,11.355-6.272,18.026-7.18c-0.027,1.283,0.802,2.14,0.928,2.839
	c1.377-2.367,3.2-4.165,4.127-6.727c6.208,1.491,13.497,6.176,19.479,8.728c6.053,2.586,12.394,5.557,18.574,7.843
	c13.407,4.963,26.759,11.816,39.605,18.574c3.594,1.887,7.005,4.604,10.793,6.003c3.857,1.426,7.206,1.611,10.747,4.247
	c6.823,5.077,11.753,8.051,19.565,11.288c14.074,5.829,28.133,12.418,42.081,17.595c3.39,1.26,7.052,2.257,10.271,3.962
	c3.172-2.151,1.108-5.502,1.401-8.781c-13.089-5.029-23.545-15.1-37.595-19.269c-3.744-1.11-7.027-2.866-10.764-3.913
	c-4.105-1.148-8.188-1.008-12.229-2.461c-7.047-2.53-14.726-8.235-20.929-12.213c-12.049-7.718-24.161-14.765-36.795-21.522
	c-13.8-7.384-29.219-6.195-43.056-12.475c-4.122-1.868-8.472-6.688-12.641-7.383c-0.138,1.653,1.038,9.87,1.989,11.076
	c1.563,1.98,7.237,2.257,9.561,3.155c5.95,2.305,11.821,5.695,17.382,9.037c6.573,3.963,11.539,5.632,18.938,7.502
	c6.645,1.677,13.56,2.918,19.566,6.819c5.785,3.761,11.12,8.802,17.238,12.093c5.989,3.226,12.347,5.512,18.475,8.45
	c11.557,5.542,23.681,10.98,35.587,16.756c5.548,2.691,12.248,4.992,17.845,7.106c2.888,1.094,6.287,0.219,7.229,4.02
	c0.979,3.98-3.434,5.435-5.313,2.032c4.179,3.832,1.88,15.792,2.396,20.93c0.779,7.621-0.046,15.845-0.023,23.509
	c0.046,15.97-0.345,32.163,0.487,48.426c0.686,13.513,2.407,28.743-0.556,41.505c-3.853,0.193-8.056,0.269-11.661-0.427
	c-3.571-0.688-6.54-2.627-10.296-2.063c-7.515,1.13-12.752,3.956-21.023,3.543c-15.523-0.768-31.009-1.289-46.962-1.467
	c-7.893-0.086-15.775-0.808-22.866,1.101c-4.809,1.295-6.094,1.45-7.951-3.549c-1.913-5.165-1.714-4.694-7.337-4.401
	c-7.6,0.399-15.798-0.558-23.1-0.105c-7.613,0.466-14.824,2.46-22.878,2.063c-3.666-0.176-6.875-1.271-10.138-2.09
	c-5.237-1.319-5.373-0.548-8.466,3.054c-4.934,5.743-13.013,3.762-20.529,4.896c-15.703,2.372-30.913-1.199-46.47,0.475
	c-10.311,1.107-19.33,1.932-29.35,0.51c-9.339-1.317-20.757-1.483-29.767,1.422c0.232-4.224-0.995-7.481-0.563-11.688
	c0.39-3.817,0.482-7.704,0.491-11.74c0.019-8.187-1.683-15.976-0.978-23.973c1.395-15.872,1.941-30.875,1.958-46.466
	C5,48.819,4.504,40.813,4.504,33.174c0-5.609,3.838-17.214-3.425-18.098"/>
<path fill="none" stroke="#000000" stroke-width="0.5" stroke-miterlimit="10" d="M203.595,148.12
	c-0.798,6.925,4.173,15.193,5.847,21.552c2,7.645,5.206,15.041,8.964,22.366c6.787,13.236,13.783,26.68,19.067,40.697
	c1.479,3.934,10.445,17.799,9.66,19.576"/>
<path fill="none" stroke="#000000" stroke-width="0.5" stroke-miterlimit="10" d="M127.287,146.654
	c-0.37,5.989-6.357,17.075-10.142,22.984c-4.904,7.665-8.827,15.255-13.339,23.02c-8.609,14.819-18.133,28.123-22.491,44.99
	c-0.863,3.341-2.26,7.767-4.904,10.262"/>
<path fill="none" stroke="#000000" stroke-width="0.5" stroke-miterlimit="10" d="M133.157-50.482
	c1.76-0.167,4.349,2.833,7.336,2.961c2.849,0.124,7.682-0.652,10.763-1.004c6.326-0.726,12.018-4.488,18.584-4.901
	c6.431-0.404,13.916,1.59,20.182,2.826c5.657,1.114,11.923,3.887,16.475,7.362c-7.755,0.54-15.391,1.63-23.548,2.053
	c-4.341,0.226-8.313,1.753-12.611,1.967c-4.236,0.211-7.917-1.538-12.229-1.491c-8.353,0.091-17.44,0.563-26.038,0.966
	c-4.166,0.194-8.1,0.848-12.095,0.49c-3.612-0.322-7.369-0.591-10.895,0.409c-2.846,0.803-19.425,8.944-13.11,11.258
	c0.887,0.323,4.63-1.306,5.882-1.368c2.022-0.1,3.777,0.405,5.87,0.49c4.386,0.182,8.788-0.267,13.208-0.49
	c8.387-0.422,16.86,0.182,25.447,0c9.257-0.194,17.546-3.135,26.516-3.913c7.876-0.681,15.936,0.391,23.836,0.027
	c7.935-0.367,15.304-1.532,23.53-1.031c11.149,0.682,27.557,4.148,34.649,15.081c-6.795,4.076-16.465-0.366-23.912-0.38
	c-9.027-0.011-17.718,2.469-26.872,2.445c-17.721-0.043-35.652,0-53.351,0c-9.367,0-16.975,1.784-25.924,3.912
	c-8.171,1.947-15.452-0.022-22.966-1.983c-14.856-3.871-29.881-6.968-44.433-0.329c-4.52,2.059-11.696,2.187-14.217,7.568
	c6.698,4.419,12.285,7.773,20.577,6.497C72.348-2.374,80.03-1.694,88.65-1.669c7.813,0.022,15.557-2.945,23.86-2.719
	c7.97,0.218,17.101-0.206,25.274-0.98c16.768-1.588,32.969-2.311,49.673-0.597c17.06,1.75,33.335,1.685,50.389,0.028
	c5.817-0.566,11.596-0.863,17.112-1.967c5.342-1.071,11.894-2.965,17.512-2.351c9.05,0.986,18.223,6.831,26.104,10.628
	c-4.561,4.943-15.265,1.039-22.073,1.983c-8.921,1.237-17.771,2.038-26.908,2.91c-17.096,1.629-33.574,2.497-50.868,1
	c-4.256-0.366-7.969-0.683-12.236-0.498c-3.931,0.171-7.117-1.98-11.137-1.344c-4.115,0.652-6.087,2.959-10.502,2.456
	c-3.725-0.421-6.672-1.062-10.642-0.622c-7.92,0.881-16.394,1.369-24.458,1.48c-8.182,0.114-15.407,0.786-23.478,1.48
	c-16.021,1.375-32.961,0.789-48.917-0.01c-8.186-0.41-15.471,1.305-23.48,0.978C26.57,9.888,16.908,7.786,10.368,9.673
	c-8.122,2.345-5.45,8.637-5.268,15.59c5.574,3.51,15.852,0.581,22.904,0.575c9.043-0.009,16.051,0.781,24.947-0.978
	c8.071-1.595,16.787-0.336,24.946-1.479c9.071-1.266,18.298,0.453,27.409,0.024c16.232-0.764,32.941-0.17,49.393-0.994
	c8.208-0.408,16.398,1.789,24.459,1.009c8.128-0.791,15.978-1.981,24.454-1.981c8.708,0,17.524,0.449,25.927-0.382
	c8.308-0.818,15.415,0.96,23.601,1.358c8.182,0.399,16.572,0.389,24.334,0c8.29-0.412,15.599,1.913,23.996,1.496
	c4.889-0.244,13.373-3.655,17.582-1.981c6.586,2.614,3.237,10.052,2.861,15.086c-8.278,0.153-16.683,2.618-25.361,2.532
	c-8.918-0.092-18.802-1.588-27.773-2.47c-18.378-1.803-38.291-0.923-56.831-0.012c-8.146,0.401-16.555,1.209-24.481,1.983
	c-8.484,0.825-16.557-1.484-24.949-1.466c-17.007,0.036-34.556-1.732-51.364-0.029c-8.607,0.876-16.538-1.474-24.947-2.431
	c-8.246-0.937-15.524,1.012-23.589,0.986c-15.98-0.041-32.125,0.257-46.959,3.316c-1.84,0.379-9.382,0.1-10.554,1.183
	c-1.318,1.227-1.009,8.365-1.1,10.152c-0.511,9.829,9.478,6.279,16.655,5.921c7.089-0.355,14.591,0.208,21.522-0.134
	c5.845-0.29,16.307,0.748,18.709-4.708c4.803,0.979,34.373-4.443,32.235,5.721c8.071-0.155,16.557-0.826,24.875-0.906
	c4.149-0.035,8.128,0.445,12.339,0.492c3.274,0.033,9.647,1.904,12.632,0.511c1.474-0.688,1.953-3.3,3.009-3.84
	c1.93-0.986,3.195,0.018,5.283-0.098c3.988-0.208,7.294,0.309,11.249,0.492c6.421,0.304,17.054-0.949,22.631,1.823
	c2.059,1.021,3.525,2.155,2.77,4.844c14.272-3.257,33.688-4.007,47.9-2.83c-0.088-1.297,0.761-2.432,0.635-3.762
	c6.805,0.449,32.268-3.366,32.801,5.731c6.225-1.237,10.817-2.869,17.505-2.872c5.905,0,11.523-1.501,17.115-1.479
	c3.931,0.014,13.104,0.278,16.021,2.581c3.221,2.543,3.572,11.962,2.997,15.94c-4.522,0.613-7.456-3.285-12.175-2.884
	c-4.61,0.393-8.839,2.574-13.672,2.58c-4.861,0.005-8.743-1.671-13.186-2.086c-4.854-0.451-10.032,0.119-14.651-0.368
	c2.66,6.357-6.477,13.54,4.467,12.24c6.666-0.793,13.684-0.97,20.437-1.088c3.965-0.065,6.557,1.286,10.283,1.973
	c3.49,0.642,6.196-0.213,9.663-0.614c4.132-0.476,6.232-1.299,7.905,2.585c1.227,2.831,0.618,7.502,0.432,10.671
	c-4.06-1.144-10.177-0.692-14.562-0.914c-5.887-0.295-11.362-0.559-17.146-0.979c-4.854-0.35-9.498-1.477-14.676-1.469
	c-6.513,0.013-8.334,1.469-6.426,8.232c-6.018,1.022-12.451-1.423-18.525-0.894c-4.995,0.432-13.965,2.134-18.511-0.131
	c0.97-0.864,1.474-2.377,2.43-3.3c-3.09-2.429-12.479-0.812-16.577-0.38c-5.063,0.531-10.146,2.81-15.276,3.315
	c-4.76,0.463-11.22,0.048-14.784-3.315c-2.891-2.733-0.512-8.564-1.285-13.24c16.167-2.027,32.12,1.395,48.279,0.487
	c0.092,4.642-0.907,9.084-0.9,13.963c1.882-9.349-0.79-18.837,0.791-27.566c-2.922,2.476-7.784,0.471-11.074-0.161
	c-4.598-0.883-8.448-0.492-13.196-0.499c-8.026-0.01-16.465-0.343-23.921,1.566c1.014,2.958,0.878,8.455,0.063,11.493
	c-0.608-8.105-0.445-16.286,0.379-23.669c-0.168,4.316-0.27,8.02-0.904,12.003c7.852,0.991,17.201-0.826,25.363-0.412
	c4.266,0.218,8.669-0.086,12.691,0.515c3.257,0.489,8.036,2.362,11.191,0.866c0.281-5.038-1.491-11.304,0.509-15.478
	c-7.51,0.487-16.125,1.199-23.904,1.978c-7.085,0.718-17.444,3.22-24.35,0.766c-3.031-1.081-5.144-4.138-8.313-5.392
	c-3.497-1.38-7.976-0.612-11.851-0.856c-3.729-0.234-7.117-1.823-10.762-1.468c-1.898,0.188-9.784,1.149-11.141,2.067
	c-2.618,1.772-2.82,14.354-2.165,17.449c-7.97-2.895-16.337-0.437-25.336-0.929c-9.294-0.509-17.826-2.528-27.319-3.009
	c-0.163-3.732,0.005-7.619,0.82-11.122c-2.915,2.849-0.058,18.207,0.648,22.385c11.227-1.363,21.951,1.404,33.188,2.511
	c4.159,0.407,11.708,2.086,15.651,0.976c3.19-0.901,3.231-1.91,3.438-5.366c0.161-2.751,0.326-5.589-1.37-7.693
	c-1.191,3.612-3.627,13.443-2.067,16.772c2.381-4.739,1.376-9.605,2.336-13.945c0.296,4.442-0.465,8.511-1.346,12.691
	c-0.956,4.529-0.848,8.431-1.183,13.121c-4.638-0.798-10.64,1.238-15.949,1.055c-6.242-0.225-12.314,0.281-18.588,0.01
	c-2.491-0.107-14.51-1.862-15.675-3.415c-2.431-3.238,1.956-13.453,1.487-17.484c-1.014,4.536,0.019,8.254,0.012,13.059
	c-0.005,5.033-1.98,9.481-1.479,14.526c0.108-1.244-0.359-2.034-0.558-3.199c-3.005,0.161-5.676,1.277-8.614,1.272
	c-3.373,0-6.861-0.125-10.393,0.23c-3.57,0.36-6.994,0.401-10.381-0.494c-4.991-1.3-3.635-1.472-4.856-6.393
	c-3.955-0.308-7.176,1.426-11.2,1.414c-3.59-0.005-7.821-0.897-11.714-0.513c-7.562,0.753-14.107,4.977-22.015,3.423
	c-4.616-0.901-6.536-1.273-7.337-5.871c-0.554-3.186-0.522-8.694,0.857-11.352c3.214-6.208,14.979-4.656,21.155-5.274
	c8.624-0.868,18.327-1.317,26.427-0.97c5.278,0.227,5.233,1.438,4.415,7.355c-0.535,3.85-0.924,7.759-0.027,10.81
	c0.083-6.9-3.254-17.78,0.429-23.441c-9.023-3.881-17.158-1.091-26.354-1.09c-8.734,0-16.534-0.636-24.847,1.909
	c-0.235-3.495-1.432-8.58-1.077-11.693c0.523-4.54,4.003-5.007,8.341-5.84c7.708-1.486,14.026-2.615,21.487-1.021
	c4.248,0.911,7.399,0.086,11.751,0.508c1.607,0.154,10.306,0.271,10.908,0.828c2.878,2.664-0.717,17.706-1.126,21.674
	c-0.712,6.925-1.53,13.019,0.908,19.444c-0.247,0.567-1.189,2.045-1.491,2.516c-3.032-2.098-8.707-1.41-12.243-1.039
	c-4.896,0.51-9.107-0.434-14.076-0.388c-8.497,0.099-17.243,2.426-25.855,3.009c-0.903,5.625-3.61,16.545,2.352,19.983
	c3.337,1.927,7.244,0.064,10.783-0.473c4.076-0.607,8.057-0.607,12.23-0.969c15.671-1.335,31.202-5.854,46.959-5.896
	c15.889-0.04,31.921,1.464,47.938,1.469c5.265,0,16.903,6.552,19.688,3.056c1.204-1.514,2.215-9.465,1.235-11.374
	c-1.957-3.801-6.036-1.171-9.173,0.11c-7.688,3.151-14.787,0.698-22.621,0c-7.348-0.653-17.19,1.231-24.313-1.19
	c0.254-0.295,0.674-0.53,1.001-0.86c-0.842-1.149-1.568-1.323-2.909-1.396c-1.142,3.165-16.593,2.678-20.142,2.85
	c-7.199,0.35-14.016,1.954-21.034,1.954c-13.379,0.008-29.138-3.746-41.516,2.07c1.868,6.377-1.473,14.423,1.489,20.839
	c7.663,0.499,15.869,1.275,23.397,1.551c7.863,0.291,16.169-1.887,23.967-2.946c8.141-1.107,16.083-3.121,24.458-3.873
	c8.284-0.745,15.761,0.953,23.969,0.953c7.291,0,14.356,0.335,21.522-0.383c5.618-0.559,15.463-2.195,20.569,1.187
	c0.231-13.235,0.306-27.706-1.981-40.769c0.624,8.398,0,17.443,0.011,25.778c0.01,8.489,1.053,17.025,0.894,25.364
	c-7.721,0.393-16.273,0.919-23.406,0.563c-7.628-0.389-15.555-1.483-23.479-1.466c-8.351,0.01-16.603-0.012-24.949,0
	c-8.331,0.005-15.25,2.068-23.48,2.44c-7.796,0.355-15.917,1.479-23.857,1.358c-3.643-0.056-7.475,0.316-11.361,0.11
	c-4.405-0.23-8.517-2.201-8.914,2.447c-0.663,7.772,14.651,4.615,20.054,4.294c7.491-0.447,15.68-0.481,23.589-0.872
	c15.806-0.779,31.918-0.551,47.45-1.478c8.388-0.5,16.119-0.661,23.97-3.057c3.723-1.135,7.968-2.001,11.729-2.327
	c1.752-0.148,4.255,0.591,5.905,0.04c1.896-0.637,2.673-2.62,4.76-2.849c2.902-0.321,8.475,1.973,11.872,2.31
	c4.331,0.428,8.195,0.138,12.587-0.572c4.071-0.661,8.399-1.09,12.83-0.867c3.198,0.155,8.746,1.772,11.22,0.132
	c-1.579-0.55-3.017-1.41-4.21-2.532c3.371,2.361,6.666,0.264,10.09-0.076c4.231-0.416,8.249,0.453,12.25,1.02
	c8.059,1.134,14.972-1.836,22.993-0.609c15.676,2.395,32.701,0.915,48.913,2.17c7.818,0.607,15.1-4.095,22.498-3.149
	c6.29,0.807,16.023,4.145,21.952,0.619c-0.643-1.871-2.265-7.908-4.438-8.835c-1.949-0.83-8.72,2.176-11.645,2.466
	c-8.145,0.799-15.172-2.375-23.101-1.589c-8.283,0.823-15.82,3.057-24.344,3.045c-8.205-0.009-16.343-0.819-24.449-0.486
	c-9.107,0.366-17.971-0.067-26.889-0.521c-8.073-0.399-16.167-2.132-23.827-0.487c1.017,2.016,1.205,4.301,1.295,6.725
	c0-5.365-0.147-10.455,1.091-15.437c6.679,3.349,14.447,0.188,21.929,1.405c8.019,1.295,15.419,1.316,23.455-1.09
	c8.232-2.472,15.844-2.871,24.454-3.314c8.478-0.435,15.798,2.752,24.46,1.359c13.368-2.145,27.114-2.5,40.528-1.927
	c0.224-4.477-0.146-8.489-0.981-12.57c-7.699,0.411-16.504,2.585-24.401,1.029c-8.736-1.717-15.422-0.904-23.975,0.833
	c-7.847,1.595-15.677-0.545-23.45,0.62c-8.461,1.274-15.832-1.881-23.997-1.112c-2.875,0.278-5.841,2.058-8.78,2.595
	c-3.331,0.604-6.609,0.034-9.77-0.136c-3.707-0.192-6.343,1.013-9.663,1.511c-3.278,0.487-6.9-0.729-9.917,0.513
	c-1.841-1.849,0.458-10.658,0.517-14.062c-2.724,8.352-0.333,18.241-2.396,26.16c7.279,2.129,16.278-1.298,23.893-0.896
	c4.027,0.21,7.641,1.448,11.738,1.004c4.094-0.449,8.136-2.021,12.233-2.58c8.262-1.133,14.779,1.93,22.606-0.732
	c8.165-2.771,14.792,0.471,23.373-1.238c7.212-1.434,14.457-1.348,22.013-1.348c6.671,0,15.272,3.374,21.438,0.895
	c-1.3-15.106-0.895-30.775-0.895-46.387c0-15.692-2.03-32.016-2.063-47.559c-0.01-3.686,1.604-8.603,0.012-12.014
	c-1.563-3.347-5.039-3.871-7.825-5.857c-6.275-4.47-11.532-8.724-18.986-10.775c-15.085-4.157-28.97-11.508-43.56-17.717
	c-8.643-3.682-20.16-7.767-27.011-14.078c-6.156-5.669-16.772-10.007-24.598-12.315c-1.787-6.76-11.188-7.513-16.372-8.813
	c-3.216-0.804-6.911-0.584-10.284-1.481c-3.283-0.875-5.69-3.358-8.195-4.816c-1.979,4.834-10.148,5.007-14.66,7.372
	c-4.249,2.229-9.346,5.122-13.32,6.25"/>
<path fill="none" stroke="#000000" stroke-width="0.5" stroke-miterlimit="10" d="M272.08,149.587
	c-0.608-0.076-0.705-0.883-1.021-0.046c0.604,3.026,0.659,7.584,2.471,9.888c2.66-2.664,3.262-6.811,6.397-9.182
	c-0.413,3.365-2.236,7.319,0.453,10.176c2.976-2.055,3.349-8.245,4.425-11.668c-0.038,5.092-0.234,9.844,1.538,14.436
	c0.223-0.024,1.089-0.029,1.3,0c1.979-4.62,0.201-12.538,3.404-16.016c0.356,5.565-3.24,13.757,0.7,18.485
	c4.884-2.631,3.283-12.8,5.647-17.02c-0.121,5.921-2.141,11.747-1.76,17.999c5.095-1.455,4.779-15.247,4.315-19.845
	c0,2.959-0.792,7.216-0.108,10.015c0.958,3.926,2.063,3.044,6.959,3.044c10.1,0,9.699-2.22,9.225-11.666
	c-4.382-0.091-12.253-3.364-15.982-1.461c-0.276,4.522-2.255,18.383,1.021,21.818c2.452,2.579,15.66,2.102,19.362,1.507
	c-0.945-5.692,1.38-9.859-4.804-10.193c-4.585-0.24-9.951,0.013-14.616-0.08c-0.42-5.05,1.648-9.258-0.155-14.048
	c-4.307,1.563-9.174,3.054-14.108,3.363c-5.043,0.303-11.389,1.601-16.142,0.975"/>
<path fill="none" stroke="#000000" stroke-width="0.5" stroke-miterlimit="10" d="M12.331,151.054
	c-1.335,1.632-1.062,3.917-0.938,6.174c-6.607-4.139-5.909,4.448-5.897,8.479c0.021,7.899,0.916,6.684,7.816,6.379
	c4.179-0.183,10.959,2.721,14.701,0.521c4.929-2.908,0.734-8.898-0.097-13.161c-4.542,0.227-11.103-0.24-15.432-1.053
	c4.155,0,9.674,1.048,12.971-1.549c-0.072-2.304-1.417-4.19-1.406-6.592c2.634,3.193-0.312,9.378,2.971,11.517
	c1.706-3.772,2.442-6.92,5.528-10.129c0.174-0.188,0.166-0.197-0.028-0.029c-0.739,4.007-0.751,9.194-2.136,12.974
	c3.36-5.636,3.967-10.468,9.88-14.332c-2.09,5.578-3.456,10.628-4.362,16.417c2.707-4.837,4.539-11.224,8.753-15.437
	c-1.406,5.205-5.56,9.803-4.84,15.415c4.631-2.03,6.182-11.706,10.224-15.428c-0.885,4.289-4.929,15.151,0.848,17.371
	c3.638-4.122,4.146-10.504,5.882-15.427c-0.925,4.218-1.771,9.705-0.321,13.971c4.628-0.769,6.841-10.863,6.762-14.952
	c0.062,3.378-0.457,12.086,4.458,12.372c7.277,0.43,6.795-12.394,16.605-9.584c4.179,1.197,10.102,0.389,11.226-5.384"/>
<path fill="none" stroke="#000000" stroke-width="0.5" stroke-miterlimit="10" d="M271.1,158.88
	c2.132-7.097-7.109-6.37-12.229-6.357c-3.525,0.005-4.585,0.698-7.732-1.101c-2.103-1.201-3.514-5.269-5.968-2.815"/>
<path fill="none" stroke="#000000" stroke-width="0.5" stroke-miterlimit="10" d="M-135.395,79.635
	c19.204-0.247,41.199,0.218,61.144,1.467c17.181,1.072,35.262-5.669,52.369-3.914c4.452,0.458,9.275,1.422,13.671,1.845
	c3.109,0.31,11.757-1.545,12.229-0.866"/>
<path fill="none" stroke="#000000" stroke-width="0.5" stroke-miterlimit="10" d="M324.908,74.745
	c-0.679,0.008-1.261-0.062-1.901,0.086c3.038,7.274,22.809,3.604,29.3,2.959c6.751-0.674,12.791-1.703,19.563-1.111
	c7.852,0.676,16.264-1.721,23.989-0.11c11.614,2.426,21.609,4.042,33.729,3.453c6.534-0.316,14.743-2.581,21.03-0.873"/>
<path fill="none" stroke="#000000" stroke-width="0.5" stroke-miterlimit="10" d="M164.953-11.351
	c0,6.892-0.543,13.009-1.076,19.519c-3.09-1.036-10.571,0.334-8.243,5.453c1.638,3.613,9.193,1.875,12.236,1.427
	c2.959-0.435,10.737-1.981,5.018-5.5c-1.033-0.63-3.916-0.27-5.384-0.479c-1.707-0.243-4.58-1.479-5.979-1.834"/>
<path fill="none" stroke="#000000" stroke-width="0.5" stroke-miterlimit="10" d="M160.552-44.122
	c1.969,2.61,1.464,9.721,1.464,12.298c0-1.327,0-2.657,0-3.984"/>
<path fill="none" stroke="#000000" stroke-width="0.5" stroke-miterlimit="10" d="M62.96,59.314
	c-0.062-0.424-0.045-0.843,0.055-1.258c1.031,3.423-0.604,8.392-0.789,12.023c-0.227,4.472-1.309,8.552-1.467,12.961
	c-0.124,3.451-1.374,9.112,0.306,12.227c1.648,3.061,7.762,2.371,10.956,2.208c1.998-0.104,4.102-0.098,6.102,0
	c1.597,0.074,4.323,0.859,5.87,0.189c3.081-1.33,3.086-9.552,2.946-12.423c-0.208-4.244-1.28-8.438-1.493-12.715
	c-0.103-2.059-0.136-4.328,0.067-6.362c0.173-1.713,1.233-4.127,0.678-5.87c-0.504-1.588-2.362-2.339-3.968-2.635
	c-2.812-0.518-2.659,0.99-2.642,3.614c0.029,4.065,0.442,8.318,0.25,12.475c-0.176,3.926-0.775,8.174-0.972,12.227
	c-0.143,2.924,1.247,9.751-0.986,11.677c-1.455,1.255-2.875,0.2-4.45-0.126c-2.072-0.435-3.53,0.297-5.53,0.155
	c-0.339-6.649,0.386-13.064,0.696-19.531c0.16-3.307,0.416-6.827,0.732-10.031c0.304-3.067-0.758-6.827,0.29-9.741
	c1.854,0.153,3.311-0.603,5.091-0.772c1.958-0.185,3.73-0.062,5.626,0c4.923,0.158,5.113,2.745,4.945,6.659
	c-0.149,3.571,0.796,7.337,1.168,10.951c0.398,3.817,0.252,7.95,0.453,11.7c-3.637-0.355-7.822-0.551-11.704-0.94
	c-4.02-0.401-8.031,0.309-11.984-0.239c-4.139-0.577-2.363-5.723-1.456-8.795c1.242-4.208,5.541-4.222,9.527-4.419
	c4.07-0.199,8.362,0.12,12.224-0.494c2.696-0.427,2.338-0.728,2.208-3.415c-0.102-1.978,0.639-4.335,0.439-6.117
	c-0.877-7.874-15.497-3.38-20.252-3.663c-0.935-0.054-2.681-0.373-3.178-0.493"/>
<path fill="none" stroke="#000000" stroke-width="0.5" stroke-miterlimit="10" d="M268.412,58.334
	c1.392,2.556,0.671,6.861,0.975,9.784c0.354,3.451,0.185,6.966,0,10.513c-0.185,3.428-0.23,6.545-0.242,10.032
	c-0.01,2.517,1.655,8.133,0.489,10.026"/>
<path fill="none" stroke="#000000" stroke-width="0.5" stroke-miterlimit="10" d="M241.263,59.56c4.362-0.017,8.421-0.166,12.713,0
	c4.413,0.17,8.484-1.137,9.236,4.156c0.589,4.09-0.185,8.346-0.185,12.473c0,4.122-0.276,8.1-0.259,12.246
	c0.012,3.97,0.482,7.641-4.39,7.813c-3.988,0.139-8.162,0.218-12.243,0.012c-1.2-0.061-4.685-0.095-5.567-1.046
	c-1.13-1.228-0.213-4.035-0.051-5.563c0.405-3.943,0.538-8.267,0.492-12.232c-0.046-4.048-0.458-8.421-0.492-12.474
	c-0.024-2.047-0.924-4.409,1.22-5.136c1.777-0.603,3.737,0.931,5.325,0.521c1.513,2.71,0.868,5.749,1.03,8.771
	c0.175,3.055,0.415,6.177,0.26,9.292c-0.293,5.93-1.261,11.757-0.95,17.818c2.01,0.104,4.057-0.046,6.074,0.037
	c2.587,0.104,2.873,0.303,3.184-2.441c0.456-4.104,0.118-8.968-0.482-12.956c-0.626-4.154-1.237-8.421-1.232-12.725
	c0-4.031-1.29-8.829,4.166-8.33c5.762,0.521,3.929,9.063,4.105,13.176c-3.37,1.362-7.813-0.281-11.208-0.444
	c-4.068-0.201-7.885,0.167-11.692,0.774c-0.769,1.892-1.227,9.646,0.01,11.154c2.122,2.585,8.337,1.417,11.198,1.28
	c2.657-0.133,9.779,1.039,11.44-1.521c0.7-1.066,0.24-4.678,0.349-6.007c0.144-1.743,0.449-3.961,0.449-5.693
	c0-2.539,0.172-5.53-0.495-8.059c-0.87-3.303-1.993-3.823-5.199-4.34c-5.152-0.838-11.515-1.805-16.576-0.304"/>
</svg>
