<?xml version="1.0" encoding="utf-8"?>
<!-- Generator: Adobe Illustrator 16.0.0, SVG Export Plug-In . SVG Version: 6.00 Build 0)  -->
<!DOCTYPE svg PUBLIC "-//W3C//DTD SVG 1.1//EN" "http://www.w3.org/Graphics/SVG/1.1/DTD/svg11.dtd">
<svg version="1.1" id="图层_1" xmlns="http://www.w3.org/2000/svg" xmlns:xlink="http://www.w3.org/1999/xlink" x="0px" y="0px"
	 width="303.232px" height="279.865px" viewBox="0 0 303.232 279.865" enable-background="new 0 0 303.232 279.865"
	 xml:space="preserve">
<g id="图层_1_1_" display="none" opacity="0.4">
	
		<image display="inline" overflow="visible" enable-background="new    " width="1920" height="1080" xlink:href="E7E96C9C.png"  transform="matrix(0.2908 0 0 0.2908 -121.0247 -5.5513)">
	</image>
</g>
<g id="图层_2">
	<path fill="none" stroke="#000000" stroke-miterlimit="10" d="M17.877,278.896c1.928-10.895-2.485-20.526-2.073-31
		c0.421-10.722,0.459-20.672-1.187-30.74c-0.889-5.441,2.24-11.165,1.594-16.928c-0.642-5.722-0.479-10.088,0.407-16
		c0.888-5.922-2.06-9.74-2.407-15.332c-0.171-2.754,0.455-5.403,0.333-8c-0.126-2.678-1.138-4.812-1-7.668
		c0.24-4.966,1.854-9.201,1.341-14.333c-0.45-4.507-1.012-8.815-1.008-13.333c0.004-4.718-0.154-9.141-0.333-13.666
		c-0.137-3.51-0.399-9.739,0.74-12.975c0.2,0.635,0.133,1.066,0.008,1.865c-0.393-0.372-1.103-1.358-1.381-1.825
		c1.121,0.485,1.008,0.024,1.974,1.141c1.05-4.965,2.264-10.018,2.585-15.207c0.171-2.758-0.61-5.685-0.268-8.333
		c0.37-2.852,2.804-5.323,3.356-8c0.499-2.417,0.173-4.65,1.317-7.351c1.068-2.519,2.653-4.981,3.667-7.667
		c1.88-4.98,4.318-9.253,7.668-13.642c7.553-9.895,16.344-17.092,26.926-23.424c8.99-5.379,19.031-8.227,29-10.325
		c8.209-1.729,16.887-3.966,25.414-4.918c3.753-0.419,7.514-0.145,11.326-0.008c3.585,0.129,8.299-0.813,11.593,0.294
		c1.551-2.144,12.066-1.442,15.073-1.294c5.25,0.259,10.077,1.333,15.667,1.334c5.396,0.001,11.146,0.477,16.317,1.314
		c5.591,0.906,11.468,0.391,17.022,1.011c5.271,0.589,10.278,2.882,15.659,3.683c5.202,0.774,10.057,1.767,14.918,4.075
		c8.238,3.911,18.048,9.573,24.498,16.168c13.727,14.032,23.771,32.334,29.251,50.749c2.82,9.478,2.333,21.009,2.333,31.333
		c0,11.343,2.073,21.938,0.992,33c-0.547,5.6-0.41,11.217-1.001,16.668c-0.595,5.482-0.997,10.856-0.732,16.406
		c0.529,11.105,0.862,21.707,1.4,32.602c0.538,10.889,0.441,21.809,0.008,32.658c-0.431,10.777-2.905,22-1.342,33
		c0.202,1.42,0.551,2.713,1.359,3.83c-0.054,0.117-0.146,0.159-0.277,0.127c0.108-4.147,0.097-8.414,1.51-12.3
		c1.494-4.106,2.079-8.493,2.091-12.991c0.024-9.354-1.413-18.459-1.332-27.893c-0.011,0.232-0.022,0.4-0.192,0.576
		c0.062,0.056,0.121,0.113,0.178,0.175c1.906-2.103,4.153,0.711,6.34,0.826c3.816,0.2,3.718-2.009,4.333-5.019
		c1.094-5.339,1.667-9.887,1.667-15.666c0-5.601-0.113-10.67,0.019-16c0.182-7.406-6.054-5.037-11.018-7.742
		c-4.61-2.515-8.207-5.219-13.334-6.26c-4.96-1.006-10.063-1.485-15.018-2.979c-1.496-0.451-4.663-2.941-6.241-2.276
		c-1.707,0.721-1.825,5.575-2.075,7.25c-0.787,5.264-2.396,10.719-2.333,16.008c0.049,4.188,1.313,9.27,3.333,13
		c2.363,4.364,6.469,3.588,10.649,5.752c4.603,2.379,9.164,4.813,13.691,7.33c1.775,0.987,3.313,2.25,5.085,3.159
		c1.686,0.866,4.213,1.468,5.531,2.626c-3.586-2.773-8.128-3.795-11.707-6.117c-3.272-2.125-7.081-5.511-9.868-8.166
		c2.165-4.072,2.443-8.353,2.951-12.916c0.436-3.906,1.869-9.853,0.925-13.668c-0.626-2.527-2.581-9.152-4.25-10.748
		c-2.639-2.525-7.848-1.746-11.226-3.601c0.346,0.138,0.752,0.231,1.091,0.374c-0.62-0.09-1.211-0.535-1.814-0.75
		c-0.454-2.402,1.149-4.863,1.35-7.201c0.208-2.441-0.275-4.385-0.724-7.092c-0.804-4.838-2.434-9.605-3.358-14.309
		c-0.959-4.872-1.607-10.207-5.399-14.007c-2.942-2.95-8.093-5.252-11.667-7.251c-10.263-5.736-21.539-3.114-32.519-4.823
		c-10.538-1.641-22.462-2.007-33.333-0.926c-5.169,0.514-10.931,0.573-16.067-0.008c-5.271-0.597-10.128-2.465-15.6-2.991
		c-11.38-1.095-21.963,1.614-33.408,1.073c-11.459-0.542-22.914,0.91-34.333,0.592c-2.574-0.071-5.895-1.148-8.351-0.684
		c-2.529,0.479-4.92,2.958-7.058,4.276c-4.306,2.657-8.024,4.967-10.342,9.667c-2.374,4.815-4.154,9.484-4.177,15
		c-0.021,5.342,0.931,10.572,0.926,16.074c-0.005,4.9,1.995,10.898-2.927,13.072c-4.437,1.959-9.724,2.087-14.406,3.52
		c-5.424,1.66-9.86,1.453-14.594,5.475c-4.018,3.414-6.495,7.725-8.831,12.523c-4.6,9.451-2.448,20.422-0.983,30.41
		c0.57,3.883,2.966,11.396,8,7.258c1.689-1.387,2.747-3.651,4.301-5.309c2.073-2.211,4.196-3.484,6.69-5.033
		c4.071-2.527,8.047-5.197,12.092-7.834c3.575-2.33,8.75-3.974,10.324-8.082c0.99-2.586,0.172-4.904,0-7.668
		c-0.178-2.854,0.453-5.537,0.592-8.332c0.274-5.49-2.586-10.815-1.384-16.031c-2.411,0.521-3.95,2.279-6.208,3.031
		c-3.128,1.039-4.908-0.818-5.926,2.926c-0.784,2.882,0.999,5.172,1.674,7.731c0.709,2.691,0.584,5.492,0.584,8.343
		c0,2.733-0.27,5.62-0.008,8.34c0.15,1.558,0.196,6.021,1.009,7.324c2.885,4.627,7.906-5.77,10.916-5.096
		c0.068-0.169,0.187-0.236,0.352-0.202c0.477,7.253,0.37,14.791,0.732,21.966c0.186,3.652,0.061,7.111,0.333,10.668
		c0.195,2.539,1.491,8.883-0.333,10.697c-2.126-2.117-0.893-12.428-1.342-15.697c-0.726-5.281-1.616-11.138-1.325-16.668
		c0.209-3.969-0.741-12.57,3.926-11.925c2.38,0.329,4.323,2.358,7.083,2.265c2.455-0.084,4.605-1.172,7.325-1.015
		c2.661,0.154,4.577,1.354,7.333,1.343c2.846-0.014,5.452-0.623,8.333-0.668c4.729-0.076,10.778,0.182,15.686,0.981
		c10.294,1.68,21.946,0.891,32.647,0.353c11.372-0.57,22.748,0,34,0c11.519,0,22.2,1.207,33.333-0.326
		c10.626-1.463,22.617-0.282,33.334,0.252c5.519,0.274,10.906,0.555,16.074,1.334c2.611,0.394,5.537,0.681,8.259,0.425
		c3.319-0.313,4.713-2.334,5.992,0.989c2.078,5.399,1.479,13.531,1.008,19.326c-0.528,6.502,0.396,13.682-0.333,20.231
		c0.418-10.572,0.676-20.918-0.352-31.565c-0.521-5.384,0.093-10.423-5.39-12.259c-4.46-1.495-9.245-2.012-13.52-3.815
		c-2.254-0.95-5.064-2.396-6.813-4.176c-2.116-2.156-2.259-5.248-3.668-8.009c-2.431-4.763-3.757-11.978,0.491-16.358
		c3.992,2.267,9.825,0.308,14.25-0.123c5.291-0.516,11.118,1.012,16.207-0.603c-2.749-0.862-7.57-0.661-10.207,0.343
		c-3.586,1.365-2.857,4.863-3.007,8.668c-0.269,6.918,0.034,14.688-0.044,21.615c-3.13,0.549-7.778-2.176-10.566-3.349
		c1.301-5.325,0.862-8.89,0.617-14.269c-0.25-5.473,2.262-12.353-5-11.666c-2.695,0.256-4.587,1.279-7.344,0.676
		c-2.385-0.521-4.39-1.373-6.998-1.668c-5.431-0.616-11.063,0.182-16.584-0.082c-10.697-0.51-21.161-2.299-32.074-0.668
		c-10.643,1.592-22.067-0.391-32.667-0.258c-5.355,0.065-10.488-1-16-1c-5.602,0-11.148,0.34-16.667,0.332
		c-10.872-0.014-21.781,0.557-32.667,0c-8.508-0.436-16.834-3.041-25.215-0.643c3.465-2.662,8.549-0.51,9.141,3.31
		c0.641,4.13,0.074,8.806,0.074,13c0,3.839,1.163,7.851,0.408,11.074c-0.9,3.845-3.398,6.149-6.789,8.125
		c3.421-2.967,9.792-5.556,11.447-9.54c1.909-4.594,0.305-11.33-0.4-15.992c-0.329-2.179-1.088-6.123-0.415-8.082
		c1.021-2.972,3.54-3.332,5.091-0.927c2.033,3.152,2.475,11.481,2.658,15.342c0.156,3.274-0.14,6.378-1.259,9.333
		c-0.509,1.346-0.122,2.87-2.066,3.016c-1.554,0.117-2.566-1.242-2.689-2.564c1.646,5.266,2.051,10.391,2.349,16.217
		c0.294,5.745-1.093,11.613,0,17.232c0.988-6.609,0.271-11.469-1.009-17.898c-0.534-2.683-0.258-5.438-0.667-7.982
		c-0.427-2.658-1.648-5.107-2.063-7.686c-0.85-5.283-1.32-11.011-1.594-16.332c-0.292-5.709,1.775-10.447,2.006-15.666
		c0.119-2.688-0.704-4.716,0.654-7.192c1.003,0.188,2.171,0.377,3.239,0.524c-6.048,0.569-3.57-8.482-3.565-12.332
		c0.007-5.403-0.708-10.889-0.667-16.334c0.04-5.385,1.829-10.088,1.333-15.666c-0.462-5.193,0.975-9.797,1.742-14.926
		c0.773-5.162,0.937-10.688,4.577-15.001c3.424-4.06,9.101-9.354,13.351-12.749c4.39-3.506,8.785-5.37,12.749-9.315
		c4.009-3.988,9.588-2.81,14.917-3.343c11.142-1.115,22.35-1.313,33.332-2.407c11.461-1.142,21.271,2.174,31.983,3.092
		c20.646,1.768,40.715,7.619,53.602,25.733c3.699,5.199,3.456,11.342,3.748,17.582c0.288,6.176,4.514,10.666,2.937,16.967
		c-0.177,0.027-0.303-0.049-0.376-0.227c6.946,2.838,18.458,7.71,23.023,15.343c2.466,4.121,2.195,10.896,2.416,15.583
		c0.129,2.758-0.429,5.146-0.674,7.659c-0.28,2.877,0.806,5.089,1.008,7.675c0.133,1.7,0.345,5.715-0.392,7.209
		c-2.402,0.252-4.516-0.264-6.925,0.144c-2.45,0.411-5.008,1.431-7.333,1.657c-1.711,0.166-6.415-1.308-7.781-0.107
		c-1.17,1.025-0.823,6.199-0.901,7.766c-0.539,10.788-0.003,21.422-0.001,32.332c0.001,6.377,1.374,13.818-0.341,19.9
		c0.409-1.159,0.663-2.311,0.749-3.525c0.055-0.043,0.829-0.5,0.948-0.584c-0.354,1.022-0.604,1.495-0.708,2.426
		c-0.079-8.25-0.768-16.371-1.05-24.517c-4.847,1.327-9.688-1.032-14.934-1.032c-5.459-0.002-11.089,1.121-16.333,0.34
		c-5.234-0.779-10.835-2.11-16.333-1.357c-4.41,0.604-8.421,3.003-12.915,3.35c-3.079,0.237-6.123-0.295-9.085-0.738
		c-13.004-1.951-27.131-0.651-40.334,0.074c-13.308,0.73-26.264-2.485-39.666-1.666c-5.191,0.316-9.953,1.998-15.335,0.592
		c-5.588-1.459-9.798-1.848-15.666-1.26c-3.003,0.299-6.006,0.826-9,1.008c-3.125,0.188-3.238,0.045-5.425,2.566
		c-3.229,3.725-6.909,5.902-11.167,8.518c-2.001,1.228-3.705,2.875-5.758,4.156c-1.794,1.12-4.968,0.805-6.306,2.078
		c-2.48,2.363,2.581,12.688,3.24,16.008c2.053,10.334-0.43,22.605-0.917,33c-0.143,3.049-0.117,4.561,1.19,7.006
		c-0.532,0.646-0.563,0.05-0.858-0.006"/>
	<path fill="none" stroke="#000000" stroke-miterlimit="10" d="M126.169,140.435c-0.799,0.051-2.012-0.837-2.75-1.125
		c-1.006-0.393-1.675-0.54-2.75-0.378c-1.844,0.278-4.034,1.57-3.75,3.878c0.31,2.516,10.098,3.979,7.153,7.158
		c-0.636,0.688-2.097,0.608-2.903,0.311c-1.074-0.399-1.047-1.383-1.777-1.941c-1.104-0.844-1.232,0.357-1.47,1.354
		c-0.27,1.142-0.485,1.592,0.747,2.125c1.706,0.74,4.403,1.192,6.25,0.619c1.6-0.498,3.397-2.492,3.131-4.258
		c-0.243-1.615-1.975-3.309-3.381-4.027c-0.918-0.469-5.042-0.66-3.787-2.473c1.584-2.286,2.576,1.124,3.406,1.663
		c2.195,1.425,2.946-1.915,1.726-3.262c-0.115,0.05-0.231,0.144-0.345,0.23"/>
	<path fill="none" stroke="#000000" stroke-miterlimit="10" d="M137.544,138.559c-4.205,0.016-8.02,3.569-7.378,8.125
		c0.33,2.34,1.738,3.539,3.759,4.5c2.299,1.092,4.017,0.36,6.188-0.906c2.602-1.518,3.531-4.299,2.524-7.102
		c-0.488-1.357-3.77-5.411-5.47-4.493"/>
	<path fill="none" stroke="#000000" stroke-miterlimit="10" d="M136.919,141.435c-2.382-2.222-3.844,2.102-3.75,3.875
		c0.14,2.61,2.492,3.51,4.875,2.848c2.296-0.639,2.922-2.817,1.875-4.852c-1.074-2.089-2.224-2.429-4.375-1.996"/>
	<path fill="none" stroke="#000000" stroke-miterlimit="10" d="M145.669,139.059c1.333-0.14,4.773-1.288,5.848,0.153
		c0.739,0.993-0.411,1.497-0.973,1.944c-0.983,0.784-0.949,1.259-1,2.651c-0.073,2.096-0.193,4.204,2.528,4.349
		c2.414,0.126,2.218-3.445,2.222-5.224c0.001-0.476,0.064-1.019-0.115-1.404c-0.174-0.373-0.829-0.455-0.915-0.939
		c-0.159-0.898,1.289-0.908,2.155-1.037c0.738-0.109,2.182,0.053,2.753,0.477c1.291,0.957,0.159,1.107-0.347,1.93
		c-0.765,1.244-0.158,4.397-0.156,5.976c0.002,2.11-0.369,3.906-2.625,4.474c-3.895,0.978-7.594-0.584-8.972-4.503
		c-0.327-0.932-0.176-1.742-0.271-2.728c-0.048-0.491-0.024-2.179-0.258-2.618c-0.456-0.86-1.598-0.225-1.1-1.725
		c0.219-0.66,1.019-1.686,1.726-1.775"/>
	<path fill="none" stroke="#000000" stroke-miterlimit="10" d="M160.169,139.434c0,0.453-0.108,1.063,0,1.5
		c0.243,0.972-0.024,0.461,0.75,0.875c1.189,0.633,1.355,0.4,1.375,2c0.014,1.063,0.015,2.102-0.151,3.125
		c-0.199,1.229-0.596,1.229-1.227,2.094c-1.283,1.758,0.999,3.466,2.753,3.504c3.397,0.072,1.328-3.449,2.656-4.816
		c0.533-0.549,1.565-0.182,2.246-0.376c0.881-0.25,1.348-0.774,1.879-1.499c1.14-1.556,0.669-3.059-0.531-4.527
		c-1.719-2.104-7.625-2.494-10.084-1.369c0.153-0.049,0.301-0.091,0.459-0.135"/>
	<path fill="none" stroke="#000000" stroke-miterlimit="10" d="M165.669,142.435c-0.579,1.504-0.238,4.993,2.125,3
		c2.079-1.754-0.874-4.31-2.125-2.375"/>
	<path fill="none" stroke="#000000" stroke-miterlimit="10" d="M182.794,139.559c-0.672,0.608-0.116,1.901-1.655,0.913
		c-0.865-0.556-1.153-1.171-2.22-1.413c-2.056-0.467-3.459,0.575-4.625,2.25c-0.33,0.474-0.8,1.099-0.973,1.658
		c-0.333,1.088-0.203,0.877,0.604,1.557c0.874,0.735,1.82,1.173,2.865,1.564c1.04,0.393,5.234,1.366,4.229,3.348
		c-0.912,1.797-4.684-0.861-5.824-1.114c0.2,2.05-0.196,3.95,2.35,4.237c2.228,0.252,4.343,0.381,6.007-1.379
		c1.56-1.646,0.816-3.974-0.536-5.496c-0.668-0.752-1.454-1.668-2.339-2.129c-0.287-0.15-1.201-0.101-1.362-0.49
		c-0.338-0.824,0.402-0.903,0.829-0.758c0.803,0.272,1.146,1.465,2.276,1.633c0.924,0.138,1.745-0.244,2.159-1.098
		c0.705-1.451-0.533-4.803-2.284-2.784"/>
	<path fill="none" stroke="#000000" stroke-miterlimit="10" d="M129.544,1.809c-0.085-0.146-0.205-0.228-0.358-0.243
		c-1.871,2.356-1.101,5.882-1.51,8.771c-0.341,2.409-1.048,5.214,0.863,6.998c1.613,1.505,4.189,1.121,5.256,3.375
		c0.541,1.141,0.159,2.522,0.595,3.73c0.347,0.963,0.79,1.881,1.033,2.862c0.617,2.473,0.812,3.731,2.963,5.289
		c1.733,1.255,3.612,1.969,5.54,2.843c1.8,0.814,4.382,1.735,6.372,1.625c2.198-0.123,4.877-1.888,6.747-3.024
		c2.459-1.496,4.941-3.256,6.754-5.503c1.911-2.371,2.375-4.626,2.868-7.476c0.131-0.754,0.438-2.206,1.153-2.715
		c0.8-0.571,1.936-0.229,2.755-0.88c1.505-1.191,0.757-4.319,0.845-6.125c0.146-2.983,1.725-10.83-3.125-10.405
		c-4.935,0.432-9.938,0.378-15.003,0.378c-1.992,0-3.571-0.445-5.47-0.723c-2.744-0.4-5.499-0.152-8.28-0.152
		c-1.877,0-3.861-0.379-5.623,0.152c-1.858,0.563-3.109,1.224-5.087,1.223c2.828-0.139,5.396-1.716,8.444-0.981
		c0.146,1.337,1.612,0.959,2.519,1.009c1.223,0.067,1.378,0.44,1.848,1.598c0.866,2.14,1.697,4.448,2.372,6.694
		c0.614,2.049,1.291,3.911,2.371,5.806c0.911,1.596,3.635,1.212,5.41,1.473c0.438,0.063,1.307,0.027,1.519,0.027
		c-2.235-0.001-3.664,0.086-5.484-1.281c-1.019-0.767-1.044-1.543-0.506-2.719c0.53-1.158,1.039-1.006,2.222-0.875
		c2.226,0.247,4.104,0.381,6.375,0.243c1.25-0.075,1.768,0.147,2.538-0.965c0.546-0.789,0.987-1.845,1.186-2.778
		c0.18-0.847,0.271-1.799,0.387-2.604c-1.635-0.093-3.282,0.056-4.863-0.244c-1.483-0.28-2.863-0.619-4.372-0.774
		c-1.375-0.142-2.834-0.186-4.25-0.128c-1.298,0.053-2.871,0.386-4.104-0.021c-0.2-0.98-0.898-2.659-1.894-3.107
		c-0.599-0.27-1.461-0.116-2.128-0.246c-0.681-0.133-1.042-0.498-1.656-0.719c-1.611-0.578-2.733,0.212-4.226,0.688
		c-1.294,0.412-2.791,0.277-4.119,0.406"/>
	<path fill="none" stroke="#000000" stroke-miterlimit="10" d="M143.419,18.309c-1.752-0.104-1.614,2.298-0.53,3.03
		c0.948,0.642,2.672,1.095,3.317-0.03c1.423-2.477-4.814-5.794-4.144-1.894c0.21,0.022,0.522,0.07,0.73,0.019"/>
	<path fill="none" stroke="#000000" stroke-miterlimit="10" d="M154.794,19.059c-2.392,0.802,3.452,5.807,4.128,1.784
		c0.454-2.704-4.976-3.474-4.878-1.534"/>
	<path fill="none" stroke="#000000" stroke-miterlimit="10" d="M130.919,55.684c-1.645,0.802-0.451,5.151-0.375,6.625
		c0.04,0.782-0.247,2.334,0.525,2.843c0.971,0.642,1.955-0.585,2.701,0.782c0.45,0.824,0.023,2.293,0.023,3.25
		c0,1.159,0.096,2.046,0.524,3.112c0.985,2.443,3.42,2.982,5.726,3.793c1.97,0.693,4.354,1.885,6.5,0.942
		c1.07-0.471,1.938-1.537,2.898-2.217c1.433-1.014,2.465-1.377,3.258-3.009c0.388-0.796,0.829-1.743,1.098-2.619
		c0.238-0.776,0.125-2.533,0.771-3.109c0.593-0.528,1.806-0.243,2.565-0.925c0.86-0.771,0.91-1.761,1.037-2.844
		c0.277-2.362,0.962-4.552-1.476-5.906c-1.646-0.914-3.988-1.032-5.902-1.222c-4.442-0.439-9.021-0.695-13.5-0.247
		c-1.27,0.127-2.646,0.148-3.875,0.5c-1.189,0.342-2.258,0.926-3.462,1.003c2.021-0.633,3.776-1.678,5.837-2.135
		c0.91-0.201,1.983-0.466,2.622,0.007c0.735,0.545,0.789,1.819,0.976,2.75c0.208,1.043,0.064,2.104,0.271,3.125
		c0.234,1.158,0.766,2.224,1.01,3.378c0.572,2.699,1.594,3.021,4.247,2.75c0.646-0.066,1.143-0.146,1.77-0.004
		c-1.097-0.733-4.97-0.788-4.497-2.853c1.209-0.709,3.167,0.173,4.603,0.104c1.673-0.081,2.917-0.815,3.105-2.606
		c-1.005-0.137-1.918-0.628-2.98-0.65c-1.061-0.021-2.033-0.114-3.125-0.236c-0.942-0.106-2.126-0.048-3-0.375
		c-1.472-0.553-0.778-0.836-0.998-2.135c-0.105-0.632-0.759-1.904-1.158-2.47c-0.827-1.167-1.301-1.006-2.369-0.555
		c-1.665,0.702-3.577,1.478-5.319,1.808c-0.535,0.102-1.012,0.145-1.531-0.155"/>
	<path fill="none" stroke="#000000" stroke-miterlimit="10" d="M139.169,67.059c-0.139-0.145-0.304-0.228-0.493-0.25
		c-0.533,1.302,0.783,3.768,2.338,2.6c1.735-1.306-1.215-4.073-2.106-1.475c0.077,0.243,0.201,0.186,0.388,0.25"/>
	<path fill="none" stroke="#000000" stroke-miterlimit="10" d="M147.294,68.559c-0.994,1.336,1.577,3.487,2.006,1.098
		c0.359-2.001-1.803-1.689-2.983-1.201c-0.086,0.316,0.023,0.495,0.228,0.729"/>
</g>
</svg>
