<?xml version="1.0" encoding="utf-8"?>
<!-- Generator: Adobe Illustrator 16.0.0, SVG Export Plug-In . SVG Version: 6.00 Build 0)  -->
<!DOCTYPE svg PUBLIC "-//W3C//DTD SVG 1.1//EN" "http://www.w3.org/Graphics/SVG/1.1/DTD/svg11.dtd">
<svg version="1.1" id="图层_1" xmlns="http://www.w3.org/2000/svg" xmlns:xlink="http://www.w3.org/1999/xlink" x="0px" y="0px"
	 width="211.895px" height="274.874px" viewBox="-31.256 -40.799 211.895 274.874"
	 enable-background="new -31.256 -40.799 211.895 274.874" xml:space="preserve">
<g id="图层_1_1_" display="none">
	
		<image display="inline" overflow="visible" opacity="0.5" enable-background="new    " width="1527" height="1040" xlink:href="72479919.png"  transform="matrix(0.3895 0 0 0.3895 -263.7593 -47.9924)">
	</image>
</g>
<g id="图层_2_1_">
	<path fill="none" stroke="#000000" stroke-miterlimit="10" d="M33.461,95.902c4.068-11.2,15.963-15.524,26.76-17.267
		c10.197-1.65,22.531-4.121,31.169,3.798c1.963,1.799,3.305,4.221,5.354,5.873c1.797,1.452,4.119,2.487,5.68,4.078
		c2.357,2.41,2.387,2.693,0.75,5.96c-0.877,1.752-2.242,4.835-3.881,5.982c-2.074,1.456-5.328,1.222-7.699,1.611
		c-2.816,0.462-5.238,1.06-8.229,1.174c-5.896,0.223-11.035-0.377-16.995-0.362c-8.813,0.021-29.845,1.104-33.692-10.421
		c-2.19,0.149-5.076,2.404-6.898,1.028c-1.282-0.967-2.329-5.93-2.098-7.241c0.806-4.55,7.434-6.951,10.593-9.673
		c3.481-3,6.188-6.978,10.107-9.402c4.542-2.808,10.012-4.325,15.037-5.594c10.123-2.557,21.665,2.433,30.456,7.31
		c5.904,3.276,25.895,13.451,17.26,21.608c-0.908,0.857-1.496,1.531-2.658,1.923c3-1.853,8.855-4.751,12.465-4.781
		c0.809-3.719,4.885-7.129,6.123-10.875c1.336-4.047,0.756-8.741,1.887-12.831c-0.189,1.397,0,2.893,0.432,4.115
		c2.854-2.982,1.688-13.258-1.957-14.63c-6.287-2.365-8.232,6.837-9.604,10.769c-0.773,2.225-1.342,5.081-2.873,6.971
		c-1.805,2.228-3.344,2.295-6.607,1.708c-4.057-0.73-8.451-5.078-11.482-8.044c-3.695-3.616-6.977-6.945-11.57-9.402
		c-3.922-2.098-8.68-6.983-13.392-6.34C57.178,54.415,52.144,65.015,44.03,70.686c-2.32,1.623-4.95,3.07-7.324,4.693
		c-2.041,1.395-4.775,4.833-7.16,4.909c-2.042-4.982-1.55-9.989-4.862-14.31c-1.342-1.751-2.671-4.061-4.963-3.352
		c-1.826,0.564-3.583,4.612-3.987,6.146c-1.026,3.903,0.916,4.05,2.458,6.88c1.173,2.153,1.222,5.47,1.529,7.955
		c0.521,4.229,2.271,11.148,5.687,14.202c2.691,2.407,6.386,0.551,7.331-1.546"/>
	<path fill="none" stroke="#000000" stroke-miterlimit="10" d="M44.31,32.981c4.475,3.235,6.395,5.341,7.313,11.21
		c0.859,5.485,1.468,11.205,0.362,16.715c-0.719,3.587-5.731,9.629-10.224,8.255c-4.479-1.368-4.215-10.455-4.955-14.129
		c-0.637-3.163,0.995-25.905,7.504-21.327"/>
	<path fill="none" stroke="#000000" stroke-miterlimit="10" d="M92.044,30.811c0.08-0.339-0.039-0.678,0.053-1.029
		c5.242,0.15,7.133,9.646,7.541,13.323c0.639,5.769,0.477,11.883-1.168,17.277c-1.158,3.805-4.842,11.159-10.143,7.78
		c-4.814-3.068-4.348-10.316-4.604-14.932c-0.453-8.103-0.133-15.199,3.678-22.359c1.547-0.715,7.051-1.513,5.723,1.386"/>
	<path fill="none" stroke="#000000" stroke-miterlimit="10" d="M22.974,61.91c0.949-1.789-0.116-6.327-0.343-8.698
		c-0.251-2.622-0.882-5.502-1.023-8.298c-0.298-5.966-0.773-11.253-0.442-17.358c0.658-12.12,5.973-23.029,18.723-26.116
		c5.628-1.363,10.222-1.458,15.718,0.36c5.489,1.815,10.281,1.167,15.824,0.002c11.221-2.36,23.875-9.818,33.359,1.093
		c2.605,3,4.785,5.969,7.229,9.041c1.84,2.311,3.65,8.296,6.359,9.066c2.799-16.851,0.633-34.036-9.24-48.129
		c-5.826-8.313-17.611-12.193-26.842-13.672c-2.834-0.455-5.551-1.836-8.326-2.168c-3.099-0.37-6.694,0.008-9.773,0.008
		c-5.662-0.001-11.52,1.592-16.715,3.536c-10.645,3.982-17.329,11.086-22.973,21.064c-2.6,4.597-3.402,10.501-3.345,15.901
		c0.043,4.109-0.495,13.049,2.26,16.216c1.39-1.006,2.083-2.586,3.075-4c2.735-3.904,5.896-6.299,9.807-8.87
		c4.331-2.85,5.72-1.904,10.786-1.529c-1.856-0.617-3.584-2.098-4.917-3.479c1.624,1.081,3.585,0.949,5.259,1.6
		c-1.416-0.71-2.688-1.855-2.708-3.497c1.942,0.117,4.309,1.729,5.765,3.055c-1.087-0.74-1.606-1.799-1.426-3.074
		c1.718,0.902,3.697,1.21,5.623,1.137c-4.941,0.241-0.011-6.268,2.613-1.572c-1.416-0.458-1.953-1.501-1.443-2.818
		c2.07,0.894,5.308,1.606,6.84,2.801c-0.893-0.46-1.287-1.274-1.789-2.113c1.384-1.413,4.558-0.465,5.848,0.958
		c-0.26-0.604-0.146-1.47-0.331-1.989c1.77,0.202,4.854,0.463,4.583,2.729c-0.865-0.853-0.962-1.578-0.969-2.729
		c1.983-0.025,5.692,1.252,6.399,2.804c-1.074-0.775-0.715-0.852-0.975-2.081c2.301-0.172,5.807,0.574,5.297,3.526
		c-1.217-0.986-1.898-2.622-1.68-4.248c2.225,0.299,5.797,2.027,6.115,4.527c-3.492-4.129,2.012-3.753,3.99-0.352
		c-0.617-0.802-0.48-1.568-0.701-2.369c1.924,0.004,3.865,1.626,4.68,3.435c-3.43-4.179,2.262-2.035,3.967-1.094
		c0.051-0.369,0.025-0.896,0.029-1.264c1.311,0.248,2.209,1.216,2.926,2.429c0.199-0.135,0.488-0.477,0.727-0.614
		c1.588,0.381,2.303,1.951,2.801,3.254c0.816-0.561,0.041-0.752,0.002-1.139"/>
	<path fill="none" stroke="#000000" stroke-miterlimit="10" d="M43.586,68.058c-3.341-0.986-7.493-3.248-7.963-6.944
		c-0.529-4.157,2.166-9.005,2.25-13.268c2.821,2.175,8.196,14.894,5.008,17.363c-5.018-2.348-7.872-19.588-2.532-21.711
		c3.646,5.95,2.839,16.021,2.451,22.734c-3.987-2.509-4.431-8.386-4.656-12.719c-0.212-4.106-0.592-14.172,2.533-17.327
		c3.372,2.076,3.453,9.793,3.652,13.322c0.32,5.622,0.66,11.44,0.269,17.064c-4.851-3.877-8.63-31.629-2.378-28.843
		c7.266,3.237,1.34,23.11-0.459,27.695c0.119-8.07,0.32-16.137,1.176-24.016c3.321,5.416,1.49,17.063-1.235,22.281
		c-3.392-3.202-7.112-28.267,0.442-25.752c3.223,1.075,4.175,8.648,4.356,11.299c0.353,5.161-0.036,11.094-2.107,15.808
		c-1.926-3.763-1.728-8.785-1.455-12.881c0.136-2.022-0.175-11.819,1.357-13.414c3.622-3.771,3.093,7.775,2.487,9.732
		c-3.133-0.77-4.296-13.907,0.061-9.715c2.18,2.096,2.18,7.827-0.369,9.447c-0.322-0.683-0.506-0.556-0.632-1.465
		c2.964,4.109,0.407,13.379-0.831,17.944c1.807-3.865,2.033-8.446,3.218-12.418c-1.108,3.742-0.277,8.792-0.307,12.788
		c0.797-2.604,1.484-5.738,2.917-8.087c-0.42,2.771-1.591,6.671-3.27,8.928c-1.346,1.808-2.854,2.145-4.341,3.562
		c-1.81-2.13-3.728-7.318-0.702-9.055c0.418,0.201,0.356,0.46,0.703,0.776"/>
	<path fill="none" stroke="#000000" stroke-miterlimit="10" d="M84.449,56.124c-0.404,1.88-1.225,14.397,2.91,13.415
		c2.145-0.51,0.176-12.125-0.648-13.385c-1.334,2.914-3.396,8.263-0.092,10.501c1.91-2.295,2.168-12.21-0.27-14.107
		c-1.299,2.116-1.967,14.323,1.346,15.102c3.967,0.934,3.607-13.082,2.811-15.11c-2.072,3.003-2.635,10.841-1.293,14.37
		c4.658-0.198,1.93-16.321,0.662-19.335c-1.465,4.524-1.176,13.296,0.053,17.933c6.234-4.64,1.281-16.05,2.133-21.374
		c-0.918,2.618-1.861,20.591,0.344,20.705c4.508,0.229,3.855-21.189,1.889-22.805c-2.785,6.95-3.283,16.401-2.918,23.807
		c7.313-0.097,6.383-19.079,4.285-22.64c-2.34,3.24-5.373,19.185-2.895,22.016c5.043-4.609,7.539-22.406,1.51-26.78
		c-1.512,4.526-0.803,14.386,1.023,18.643c1.926-4.163,3.23-15.485,0.369-19.344c-4.115-5.547-4.416,9.311-3.916,11.987
		c1.713,9.112,4.633-0.228,5.084-4.174c0.363-3.223-0.854-14.887-5.232-8.606c-1.463,2.098-3.102,14.49,1.455,12.237
		c3.42-1.694,2.559-14.359-0.574-16.195c-2.203-1.291-2.15-0.455-3.254,2.247c-0.93,2.286-1.986,5.33-1.889,7.795
		c0.264,6.537,3.65,2.398,3.896-1.989c0.184-3.272,1.1-9.269-2.088-11.343c-2.736,2.245-3.813,11.355-1.549,14.11
		c1.408-2.395,0.801-11.202-2.35-6.771c-2.596,3.658,2.184,7.849,2.453,2.819"/>
	<path fill="none" stroke="#000000" stroke-miterlimit="10" d="M116.994,20.324c0.801,12.435,1.959,24.902,0.725,37.247"/>
	<path fill="none" stroke="#000000" stroke-miterlimit="10" d="M102.531,75.29c6.314,0.721,11.371-22.461,11.58-27.113
		c0.465-10.354-3.365-23.059-9.693-31.188c-3.063-3.935-5.709-8.605-11.668-7.17c-4.176,1.003-8.148,5.998-10.379,9.43
		c-3.309,5.089-4.479,8.107-10.578,9.031c-4.794,0.726-12.168,2.053-16.634-0.361c-4.347-2.349-5.5-8.048-8.769-11.562
		c-3.172-3.407-8.797-6.206-13.018-2.992c-7.622,5.798-11.541,20.834-11.121,29.741c0.26,5.522,0.5,11.579,1.083,17.358
		c0.311,3.083,1.53,4.192,2.621,6.782c1.027,2.439,0.823,5.064,1.339,7.7c1.49,7.637,4.799,3.601,8.968-0.02
		c3.519-3.056,7.62-5.98,10.94-9.039c6.314-5.818,16.549-15.236,25.693-11.582c4.027,1.611,7.229,5.129,10.742,7.686
		c2.23,1.623,4.102,2.225,6.156,3.977c1.752,1.497,3.244,3.463,5.244,4.892c1.869,1.333,6.715,5.278,8.576,4.43"/>
	<path fill="none" stroke="#000000" stroke-miterlimit="10" d="M42.501,104.942c3.677,6.424,10.543,8.497,15.83,12.748
		c2.845,2.282,4.944,3.801,6.852,6.86c1.722,2.762,2.763,6.22,5.234,8.552c3.264-1.574,4.209-5.415,6.508-7.809
		c2.842-2.958,6.48-4.512,9.242-7.701c3.629-4.199,8.34-9.819,12.979-12.667c-5.711-0.48-11.012,2.148-16.525,2.205
		c-5.416,0.057-11.868-0.668-17.329-0.388c-5.867,0.3-10.915-0.551-17.004-1.157c-2.846-0.284-5.913-0.781-8.597-1.096
		c-1.533-0.178-1.106-1.532-2.631-0.289c-0.785,0.637-0.184,3.294-0.706,3.994c-0.038,0.052-0.061,0.936-0.053,1.031
		c-2.221-0.22-5.028,0.741-5.469,3.292c-0.667,3.869,3.433,4.241,0.519,8.214c-1.853,2.527-5.041,4.476-7.558,6.256
		c-4.84,3.426-10.156,6.188-14.932,9.688c-9.535,6.985-15.627,16.283-22.872,25.321c-2.145,2.678-3.801,5.212-4.61,8.391
		c-0.768,3.023,0.942,6.671-0.391,9.624c5.382-9.67,22.91-5.895,27.53,2.67c2.156,4,4.254,11.135,2.511,15.549
		c-1.02,2.585-2.959,2.692-4.428,4.974c-1.329,2.068-1.102,5.298-0.969,7.33c0.226,3.451,0.977,4.797-1.012,7.683
		c-1.722,2.497-3.725,3.354-6.246,4.895c-2.724,1.659-3.647,4.17-6.5,5.152c-2.126,0.729-6.333,0.791-8.679,0.352
		c-13.167-2.472-16.857-19.686-13.008-30.384c1.874-5.203,4.326-9.91,7.503-14.545c3.767-5.496,4.596-6.729,11.292-7.064
		c2.885-0.145,5.25,0.254,7.974,0.626c2.389,0.325,5.196-0.429,7.496,0.459c2.481,0.961,2.903,2.57,4.329,4.713
		c1.762,2.639,3.789,2.552,5.831,4.854c-1.325-4.608-2.655-8.791-3.201-13.625c-0.31-2.749-0.402-4.291,0.712-6.889
		c0.923-2.148,2.212-3.298,1.449-5.659c0.14,6.616,0.012,13.176-0.009,19.789c-0.009,2.861,1.204,5.303,1.826,7.938
		c0.714,3.033,0.272,5.385,1.825,8.189c-0.758-0.468-1.504-0.729-2.248-1.148c3.556,1.705,1.242,13.029-0.306,15.749
		c-2.443,4.289-6.814,6.988-8.33,11.924c-0.447,1.455-1.844,6.493-1.092,7.982c1.195,2.367,5.731,2.43,7.982,2.515
		c7.992,0.308,15.627-1.438,23.496-1.809c16.126-0.759,32.188-0.677,48.194,0c14.66,0.619,29.102-2.39,43.295-3.614
		c3.977-0.344,7.537-2.053,11.516-1.865c0.229-2.394,1.826-4.742,2.305-7.179c0.541-2.744,0.928-5.674,0.643-8.676
		c-0.348-3.695-2.605-11.806-5.053-14.193c-1.506-1.47-2.162-0.149-2.9-2.442c-0.33-1.033,0.064-3.355,0.344-4.34
		c0.824-2.925,2.484-5.418,3.289-8.316c1.512-5.423,4.6-7.699,9.656-10.218c9.281-4.615,19.191,3.401,25.473,10.129
		c4.082,4.369,7.229,7.787,7.16,14.192c-0.057,5.377-0.51,11.836-2.531,16.614c-2.484,5.873-7.303,9.177-13.381,9.783
		c-5.313,0.531-12.621-0.569-16.703-3.889c-7.67-6.234-8.561-19.033-11.592-27.554c-1.545-4.346,0.623-6.355,2.539-10.231
		c0.824-1.668,2.076-3.685,1.529-5.696c-0.455-1.675-1.973-2.239-2.531-4.342c-0.84-3.165,0.197-9.042,1.084-11.935
		c1.146-3.75,5.51-4.438,6.979-7.899c0.127-0.137,0.133-0.133,0.02,0.012c-3.924,3.14-6.787,8.685-8.352,13.314
		c-1.564,4.625,0.066,15.232,6.328,10.027c2.225-1.85,3.119-4.039,6.238-4.241c2.102-0.137,6.609,0.467,8.68,1.067
		c4.559,1.32,9.785,5.791,13.379,8.695c2.277,1.84,3.535,4.784,5.721,6.479c0.785-3.296-3.361-10.874-5.758-12.988
		c8.078-6.395-8.689-22.919-13.08-27.773c-4.195-4.639-9.164-6.658-14.445-9.744c-2.572-1.503-5.223-2.053-7.797-3.425
		c-2.641-1.411-4.438-3.86-6.789-5.713c-1.494-1.182-3.85-2.644-5.594-3.039c-3.85-4.644-8.145-6.227-13.297-8.49
		c0.059,2.578-9.047,5.562-11.355,7.107c-3.316,2.222-2.475,1.139-5.635-0.008c-2.012-0.731-6.09-1.235-8.314-0.545
		c-3.455,1.07-8.406,5.499-10.838,8.307c-1.58,1.822-1.737,4.404-4.509,4.006c-1.419-0.206-4.653-2.977-5.732-3.941
		c0.216,0.393,0.297,0.593,0.622,0.965c-1.244-0.329-2.526-0.629-3.802-0.793c0.558-0.899,0.095-0.715,1.336-1.083
		c0.263-0.242,0.943-1.319,1.189-1.738c-0.222-0.674-0.904-1.517-1.489-1.869c-2.465,1.033-3.345-0.642-5.425-1.48
		c-2.677-1.079-4.08-0.985-6.852-0.183c-1.129,0.326-2.842,1.413-4.005,1.356c-3.863-0.187-6.835-4.809-10.369-5.869
		c3.84,0.578,6.831,2.883,10.227,4.603c3.753-4.409,12.03-2.078,16.062,0.896c2.778,2.05,2.778,4.55,4.792,7.16
		c2.771,3.589,3.269,0.872,6.719,0.739c1.889-7.332,12.943-15.524,20.313-10.791c8.285,5.323,0.305,15.432-1.037,21.658
		c0.881-0.621,1.889-0.379,2.783-0.623c3.137,3.82,3.184,6.492,2.955,11.509c-0.271,5.951-2.168,7.887-7.957,9.04
		c-7.768,1.547-20.91-2.959-19.238-12.621c-1.177,0.799-2.742,1.206-4.21,1.104c0.071,5.825-0.943,8.943-6.563,11.518
		c-4.779,2.189-10.538,3.275-15.278,0.081c-4.884-3.292-4.804-10.272-2.523-14.624c2.03-3.876,1.65-3.438-0.19-7.144
		c-1.199-2.419-1.674-5.968-1.917-8.688c-0.462-5.186,2.261-7.49,6.381-9.801c-0.324,0.174-0.638,0.422-0.992,0.596
		c1.163-0.802,5.246-2.075,6.581-2.03c2.513,0.078,3.646,1.683,5.769,2.829c2.107,1.139,3.74,1.613,5.513,3.256
		c1.573,1.456,2.435,3.354,4.523,4.155c4.297,1.647,6.823-3.369,9.401-6.336c3.348-3.855,6.84-6.938,11.967-8.281
		c1.043-3.581,8.607-7.392,11.969-8.979c2.268-1.07,5.643-3.401,7.893-2.439c1.119,0.478,3.895,4.065,4.148,5.244
		c0.596,2.772-1.887,2.922-4.42,4.34c-2.613,1.462-4.918,3.383-7.523,4.899c-2.66,1.549-3.615,2.026-6.689,1.435
		c-1.572-0.304-2.031-1.069-3.879-0.909c-1.432,0.124-3.252,0.879-4.701,1.174c-2.053,0.413-4.121,0.74-6.082,1.399
		c-0.32-3.596,5.373-6.414,7.793-8.359c2.555-2.06,4.604-4.313,6.697-6.772c1.842-2.161,3.783-4.65,6.42-5.794
		c4.914-2.13,4.318,1.157,6.887,3.851c-1.744-9.663-6.01-1.412-11.227-0.237c-5.527,1.245-11.697,1.237-17.357,1.81
		c-5.395,0.545-11.824,2.167-17.277,1.366c-2.336-0.343-4.449-1.813-6.951-2.17c-2.841-0.405-5.817-0.124-8.598-0.723
		c-2.976-0.642-8.265-1.282-10.206-2.813"/>
	<path fill="none" stroke="#000000" stroke-miterlimit="10" d="M49.734,199.687c-5.09-1.471-7.127-11.752-4.791-15.649
		c3.309-5.523,11.175-5.749,14.933-0.987c3.425,4.338,3.541,11.745,0.254,16.265c-3.588,4.932-13.56,1.732-13.29-4.691"/>
	<path fill="none" stroke="#000000" stroke-miterlimit="10" d="M85.535,198.24c-1.695-3.234-5.156-4.416-6.428-8.036
		c-1.133-3.229-0.645-8.035,0.551-11.148c1.936-5.037,9.264-6.909,12.66-2.161c3.133,4.385,4.662,13.026,2.166,18.01
		c-3.039,6.08-7.801,3.434-11.844,0.081"/>
	<path fill="none" stroke="#000000" stroke-miterlimit="10" d="M165.814,189.56c-5.496,6.599-10.816,12.439-19.779,13.379
		c0.563,0.002,1.135,0.028,1.697,0.002"/>
	<path fill="none" stroke="#000000" stroke-miterlimit="10" d="M173.408,201.856c-3.068,7.965-12.078,16.126-20.252,18.081"/>
	<path fill="none" stroke="#000000" stroke-miterlimit="10" d="M-7.763,191.369c-1.794,3.924,13.095,10.435,16.605,11.163
		c-0.04-0.563-0.382-0.605-0.694-1.038"/>
	<path fill="none" stroke="#000000" stroke-miterlimit="10" d="M-14.634,208.365c-2.037,4.906,12.543,13.646,16.941,13.687
		c0.094-0.361,0.006-0.666,0.055-1.029"/>
	<path fill="none" stroke="#000000" stroke-miterlimit="10" d="M49.011-1.373c3.3,0.358,6.235-1.247,9.402-1.446
		c3.033-0.191,5.659-0.601,8.679-0.896c3.302-0.322,5.825-0.126,9.041,0.524c0.729,0.147,7.893,1.743,8.123,1.315
		c0,0.033,0,0.066,0,0.099c-0.244,0.055-0.465,0.011-0.711,0.041"/>
	<path fill="none" stroke="#000000" stroke-miterlimit="10" d="M40.151-2.819c-0.461,0.46-0.874,1.041-1.281,1.559
		c0.829-2.854,4.36-4.399,6.886-5.401c3.278-1.301,6.591-3.755,10.125-3.933c3.03-0.151,6.09-0.569,9.041-0.542
		c3.164,0.031,6.274,0.895,9.587,0.722c5.443-0.284,10.902,1.37,16.449,1.089c5.758-0.292,9.924,3.449,11.244,8.837
		c0.344-0.093,0.215-0.28,0.328-0.524"/>
</g>
</svg>
