<?xml version="1.0" encoding="utf-8"?>
<!-- Generator: Adobe Illustrator 16.0.0, SVG Export Plug-In . SVG Version: 6.00 Build 0)  -->
<!DOCTYPE svg PUBLIC "-//W3C//DTD SVG 1.1//EN" "http://www.w3.org/Graphics/SVG/1.1/DTD/svg11.dtd">
<svg version="1.1" id="图层_1" xmlns="http://www.w3.org/2000/svg" xmlns:xlink="http://www.w3.org/1999/xlink" x="0px" y="0px"
	 width="60.799px" height="191.619px" viewBox="-20.789 -70.081 60.799 191.619"
	 enable-background="new -20.789 -70.081 60.799 191.619" xml:space="preserve">
<g id="图层_1_2_">
	<g id="图层_9">
		<path fill="none" stroke="#000000" stroke-width="0.25" stroke-miterlimit="10" d="M-13.904,19.383
			c0.421-1.173,5.065-0.818,6.388-0.61c2.328,0.366,4.245,1.998,6.433,2.453c2.604,0.54,4.774-0.339,7.412-0.089
			c2.349,0.221,4.726,0.591,7.063-0.027c1.342-0.354,2.757-0.991,4.164-1.134c1.5-0.146,3.271,0.379,4.872,0.24
			c1.67-0.154,2.406-0.186,3.239,1.704c0.551,1.237,1.277,3.22,1.261,4.621c-4.921,0.825-10.101-0.07-15.103,0.489
			c-1.245,0.135-2.402,0.668-3.59,0.782c-1.115,0.104-2.48-0.423-3.584-0.479c-2.499-0.106-4.937-0.038-7.485-0.423
			c-2.607-0.402-4.998-0.679-7.475-1.293c-2.345-0.574-5.554,0.528-7.641-0.42c2.36-0.455,1.689-6.34,4.771-6.279
			c-1.752,1.748-4.082,4.089-3.201,6.843c0.841,0.019,2.719,0.03,2.946,0.956c0.29,1.199-1.403,1.449-1.056,2.923
			c0.301,1.281,0.902,1.813,0.894,3.317c0,1.319,0.031,2.627,0.162,3.895c0.255,2.547,0.093,5.123-0.162,7.645
			c-0.277,2.662,0.44,5.161,0.313,7.795c-0.166,3.413,0.093,6.46,0.617,9.822c0.25,1.574,0.736,3.117,1.068,4.683
			c0.323,1.512,0.2,3.286,0.633,4.813c-1.489-0.412-0.68,4.991-0.633,5.979c0.115,2.553-0.039,4.728,0.381,7.104
			c0.413,2.367,0.807,4.863,1.054,7.366c0.246,2.491-0.964,4.397-1.088,6.857c-0.104,2.137,0.995,4.474,1.717,6.387
			c0.524,1.393,0.436,1.643,0.119,3.094c-0.394,1.782-0.32,1.666,1.442,1.904c1.135,0.154,2.299,0.494,3.464,0.194
			c1.211-0.32,2.036-0.911,3.39-0.973c1.269-0.063,2.688-0.17,3.899-0.162c0.859,0.012,2.561,0.964,3.278,0.632
			c1.797-0.824-0.316-5.476-0.629-6.865c-0.543-2.391-1.342-4.743-0.591-7.172c0.873-2.793,0.648-4.225,0.248-7.012
			c-0.355-2.469-0.37-4.961-0.749-7.32c-0.412-2.564,0.031-4.332,0.655-6.719c0.332-1.254,0.595-2.099,0.595-3.584
			c0-1.392-0.247-2.459-0.433-3.744c-0.366-2.575-0.963-5.168-0.971-7.795c0-2.464,0.378-4.909,0.162-7.485
			c-0.332-3.833,0.378-7.775,0.774-11.705c0.212-2.103,0.621-3.648-0.038-5.735c-0.502-1.589-1.894-3.741-1.369-5.441
			c0.616,2.341,1.117,4.516,2.032,6.815c0.867,2.187,1.176,4.241,1.862,6.394c1.516,4.751,1.03,10.221,1.531,15.28
			c0.251,2.499,0.192,5.314,0.185,7.795c0,2.41,0.583,4.608,0.818,6.979c0.486,4.972-0.906,9.963-0.347,15.008
			c0.247,2.237,1.593,3.779,1.558,6.079c-0.031,2.267-0.822,4.156-0.458,6.552c0.366,2.418-0.136,3.838-0.622,6.082
			c-0.455,2.129,0.108,4.034-0.617,6.051c2.368,0.166,5.74-2.835,7.818-3.83c1.492-0.709,2.495-1.142,4.177-1.287
			c1.952-0.177,2.21-0.039,3.578,1.265c1.397-1.11-0.339-5.168-0.154-7.035c0.259-2.568,1.05-4.611,0.779-7.332
			c-0.246-2.479-0.976-4.836-1.087-7.324c-0.115-2.606,0.186-5.052,0.315-7.643c0.116-2.415,0.973-4.663,1.096-7.174
			c0.128-2.522,0.182-5.06,0.34-7.444c0.15-2.282-0.494-5.167-0.814-7.521c-0.324-2.36-0.467-4.852-0.467-7.331
			c0-3.105,0.078-5.979-0.162-9.044c-0.106-1.462-0.354-2.785-0.146-4.196c0.281-1.883,1.435-4.319,1.215-6.226
			c-1.273,0.417-0.983-1.057-1.338-1.773c-0.548-1.104-1.505-0.903-1.94-1.813c-0.929,0.254-1.894,0.813-2.734,0.717
			c-0.833-0.096-2.048-0.94-2.997-1.061c-2.596-0.339-4.459,1.15-6.749,1.373c-1.16,0.116-2.187-0.783-3.402-0.599
			c-1.191,0.187-1.9,0.854-3.27,0.788c-2.353-0.107-5.002,0.03-7.324-0.464c-1.177-0.254-2.095-0.801-3.275-0.937
			c-1.264-0.143-2.673,0.258-3.91,0.008c-1.111-0.229-1.813-0.721-3.109-0.791c-0.585-0.022-1.272-0.068-1.843-0.038
			c-0.501,0.03-1.038,0.092-0.963,0.192"/>
		<path fill="none" stroke="#000000" stroke-width="0.25" stroke-miterlimit="10" d="M-9.384,110.764
			c0.865,0.548-0.438,1.481-0.431,2.496c0.007,0.644,0.481,1.191,0.438,1.87c-0.03,0.539-0.578,1.165-0.64,1.712
			c-0.263,2.341,2.877,3.372,4.675,3.757c2.274,0.486,5.218,0.841,7.485,0.937c1.378,0.059,6.163-0.671,6.403-2.19
			c0.114-0.778-0.923-1.686-1.247-2.341c-0.455-0.902-0.901-2.056-1.211-2.992c-0.791-2.403-0.64-3.502-3.32-4.335
			c-1.956-0.602-4.354,0.092-6.112,0.74c-1.605,0.599-4.775-0.347-5.99,0.671c1.871-0.022,3.617,0,5.377-0.135
			c0.604,1.454,1.862,6.78,3.744,6.808c0.528-1.47,1.712-3.495,3.433-2.809c-0.524-0.212-1.118-0.479-1.643-0.763
			c1.264,0.478,4.435,2.799,5.43,1.106c-0.37-0.386-0.979-1.431-1.303-1.682c-0.817-0.629-1.149-0.298-2.145-0.344
			c-1.704-0.076-3.536-1.292-4.705-2.036c1.049,0.382,2.244,1.211,2.973,2.006c-1.682,0.501-2.873,0.625-4.326,1.774
			c0.532,1.333,0.721,1.894,1.666,3.051c-1.378,0.597-3.005,0.898-4.501,0.659c-1.173-0.185-3.973-1.682-4.775-0.328
			c1.752-0.598,3.256,0.058,4.938,0.14c1.35,0.062,3.394-0.494,4.674-0.907c2.568-0.825,6.098-2.06,8.261,0"/>
		<path fill="none" stroke="#000000" stroke-width="0.25" stroke-miterlimit="10" d="M10.268,112.631
			c0.022,0.926-0.98,2.691,0.281,3.146c0.235,1.177-0.655,2.28,0.489,3.133c0.741,0.555,2.692,0.459,3.595,0.547
			c2.553,0.248,5.021,0.178,7.49,0.186c2.12,0.007,4.951-0.081,6.278-1.99c0.687-0.988,0.548-1.976-0.471-2.723
			c-1.026-0.748-1.562-0.637-2.384-1.828c-1.087-1.589-1.87-2.943-2.024-4.853c0.259,0.795,0.821,2.454,1.377,3.405
			c-0.933,0.505-4.149-0.096-5.229-0.427c0.705,0.015,1.304,0.2,1.975,0.347c-0.765,0.841-1.396,1.207-1.901,2.283
			c-1.208-1.272-3.953-1.871-4.304-3.687c2.152-0.571,6.066-3.294,8.233-1.786c-2.295-0.29-6.117,0.609-7.913,2.248
			c0.034,0.181,0.084,0.39,0.154,0.567c2.923,0.288,2.621,2.568,3.902,4.339c0.547-0.583,0.953-1.393,1.689-1.778
			c0.914-0.486,1.474-0.128,2.476-0.227c-0.679-0.576-1.9-0.595-2.461-1.347c1.181,0.479,2.368,1.103,3.563,1.501
			c0.695,0.234,0.903,0.126,1.528,0.531c0.242,0.162,0.548,0.833,0.956,1.037c-1.357,0.089-2.685,0.039-3.918,0.31
			c-1.173,0.25-2.088,1.368-3.217,1.414c-0.139-0.479-0.221-1.142-0.309-1.516c0.328,0.521,0.671,1.123,0.895,1.659
			c-0.871-0.023-1.543-0.622-2.444-0.714c-0.85-0.085-2.053,0.158-3.001,0.124c-1.909-0.074-3.672-0.807-5.585-0.655
			c-0.995-2.404-0.132-2.646,1.851-3.558c1.567-0.717,2.731-1.565,4.343-2.059c-0.038-0.208-0.181-0.162-0.292-0.278"/>
	</g>
	<g id="图层_4">
		<path fill="none" stroke="#000000" stroke-width="0.25" stroke-miterlimit="10" d="M7.455-41.535
			c-0.957-0.139-1.836-1.195-2.503-1.863c-0.791-0.787-1.43-1.744-1.894-2.75c-0.259-0.578-0.551-1.149-0.787-1.745
			c-0.274-0.688-0.23-1.315-0.305-2.062c-0.072-0.714-0.204-1.393-0.204-2.143c0-0.912,0.108-1.767,0.196-2.664
			c0.204-1.982,0.899-4.067,1.794-5.844c0.362-0.726,0.706-1.464,1.327-2.005c0.528-0.471,1.264-0.712,1.896-1.019
			c0.71-0.353,1.347-0.742,2.156-0.628c0.633,0.086,1.165,0.399,1.724,0.686c0.553,0.285,1.107,0.538,1.632,0.897
			c0.524,0.361,0.817,0.774,1.215,1.248c0.367,0.431,0.714,0.917,0.972,1.415c0.278,0.521,0.698,1.078,0.892,1.595
			c0.111,0.301,0.262,0.498,0.401,0.781c0.139,0.286,0.108,0.599,0.181,0.897c0.166,0.66,0.297,1.258,0.358,1.952
			c0.07,0.697-0.058,1.296-0.162,1.987c-0.1,0.633-0.008,1.304,0.078,1.907c0.092,0.691-0.251,1.43-0.459,2.109
			c-0.212,0.671-0.358,1.342-0.56,2.028c-0.209,0.741-0.509,1.559-0.926,2.223c-0.475,0.748-1.226,1.184-1.956,1.604
			c-1.091,0.64-2.452,1.393-3.706,1.516c-1.338,0.127-2.286-0.358-3.189-1.303c-0.389-0.413-0.837-0.938-1.056-1.47
			c-0.232-0.587-0.208-1.281-0.475-1.874c-0.536-1.172-0.942-2.14-0.791-3.506c0.069-0.627,0.207-1.203,0.207-1.872
			c0-0.733-0.011-1.503,0.124-2.222c0.108-0.588,0.29-1.142,0.524-1.688c0.178-0.389,0.112-0.6,0.128-1.003
			c0.022-0.686,0.282-1.477,0.479-2.145c0.251-0.829,0.891-2.637,1.979-2.523c0.667,0.075,1.173,0.739,1.87,0.771
			c0.37,0.015,0.582-0.138,0.938,0.028c0.348,0.161,0.506,0.624,0.856,0.75c0.284,0.102,0.601-0.047,0.898,0
			c0.331,0.051,0.675,0.142,1.01,0.185c0.154,0.024,0.224,0.028,0.39,0.1c0.301,0.125,0.197,0.166,0.463,0.066
			c0.282-0.111,0.471-0.473,0.705-0.036c0.278,0.53,0.17,1.346,0.202,1.952c0.03,0.66,0.114,1.334,0.154,1.986
			c0.038,0.633,0.238,1.138,0.234,1.797c0,0.596,0.178,1.199,0.235,1.792c0.055,0.62,0.063,1.37,0,1.986
			c-0.085,0.83-0.536,1.61-0.849,2.408c-0.13,0.332-0.115,0.732-0.27,1.033c-0.17,0.324-0.509,0.601-0.745,0.887
			c-0.412,0.513-0.721,1.1-1.214,1.527c-0.656,0.567-1.196,0.613-1.99,0.733c-0.56,0.084-1.407,0.15-1.948,0
			c-1.295-0.364-1.859-1.451-2.468-2.53c-1.212-2.179-2.121-4.801-1.393-7.297c0.181-0.615,0.081-1.29,0.351-1.9
			c0.209-0.479,0.417-1.157,0.945-1.361c0.591-0.233,1.281,0.351,1.778,0.664c0.486,0.306,0.969,0.664,1.445,0.991
			c0.187,0.121,0.375,0.212,0.425,0.43c-0.859,0.079-1.712-0.343-2.564-0.422c-0.421-0.041-0.795-0.087-1.172-0.268
			c-0.599-0.293-0.07-0.656-0.34-1.013c0.138,0.407,0.266,0.771,0.57,1.082c-0.015-0.426-0.293-0.86-0.425-1.267
			c0.413,0.43,0.729,0.976,1.165,1.379c0.008-0.509-0.532-1.036-0.786-1.462c0.552,0.399,0.956,1.342,1.565,1.666
			c-0.124-0.49-0.602-1.097-0.917-1.477c0.654,0.267,0.879,1.402,1.472,1.589c-0.13-0.471-0.566-1.081-0.848-1.372
			c0.371,0.505,0.71,1.169,1.195,1.564c0.009-0.297-0.186-0.573-0.3-0.837c0.284,0.132,0.438,0.46,0.69,0.644
			c-0.043-0.127-0.102-0.259-0.182-0.373c0.178,0.253,0.37,0.577,0.683,0.645c-0.016-0.02-0.027-0.072-0.034-0.099
			c-0.183,0.426,0.427,1.109,0.555,1.508c0.158,0.486,0.034,1.165-0.244,1.6c-0.646,1.007-2.209,1.149-3.224,0.77
			c-1.169-0.43-1.805-1.792-1.161-2.914c0.595-1.035,2.469-0.986,3.394-0.593c0.414,0.173,0.761,0.376,0.977,0.783
			c-0.273-0.282-0.937-0.87-1.331-0.881c-0.016,0.475,0.903,1.36,1.243,1.694c-0.583-0.609-1.135-1.397-1.813-1.891
			c0.702,0.769,1.223,1.73,1.863,2.559c-0.764-0.672-1.404-1.805-2.434-2.212c0.235,0.479,0.883,0.935,1.207,1.398
			c0.37,0.524,0.578,1.22,0.973,1.697c-0.907-1.105-1.864-2.119-2.982-3.02c0.764,0.939,1.597,1.832,2.311,2.835
			c-0.39-0.328-0.764-0.695-1.11-1.078c-0.482-0.532-1.053-1.568-1.764-1.797c0.282,0.456,0.494,0.916,0.817,1.368
			c0.502,0.683,1.026,1.365,1.467,2.088c-0.641-0.438-1.219-1.055-1.821-1.564c-0.393-0.332-0.787-0.792-1.279-0.955
			c0.662,1.148,1.696,2.187,2.637,3.106c-0.979-0.656-1.678-1.698-2.684-2.318c0.277,0.546,0.798,0.972,1.195,1.434
			c-0.366-0.27-0.825-0.652-1.165-0.857c0.263,0.324,0.494,0.75,0.799,1.035c-0.713-0.841-0.906-1.962-0.324-2.919
			c0.351-0.566,0.987-0.675,1.608-0.577c0.594,0.094,1.227,0.146,1.794,0.342c0.308,0.106,0.671,0.196,0.849,0.517
			c0.17,0.309,0.076,0.66,0.276,0.975c0.162,0.245,0.036,0.19,0.355,0.19c0.177,0,0.359-0.056,0.544-0.072
			c0.332-0.032,0.811-0.139,1.087,0.162c-0.042,0.098-0.08,0.166-0.181,0.213c0.062-0.509-0.128-1.367,0.409-1.671
			c0.481-0.268,1.326,0.048,1.805,0.166c1.126,0.282,2.028,1.632,0.945,2.623c-0.606,0.557-1.509,0.699-2.194,0.225
			c-0.348-0.244-0.486-0.496-0.633-0.888c-0.136-0.347-0.124-0.766-0.266-1.086c0.149,0.292,0.25,0.6,0.404,0.884
			c0.139,0.249,0.428,0.49,0.455,0.767c0.016-0.767-0.548-1.595-0.88-2.254c0.537,0.287,0.817,1.097,1.119,1.595
			c0.238,0.407,0.517,0.813,0.817,1.165c-0.32-1.07-1.011-2.009-1.682-2.895c0.945,0.667,1.481,1.836,2.268,2.662
			c-0.081-0.505-0.608-1.046-0.898-1.461c-0.32-0.454-0.779-0.884-0.969-1.407c0.336,0.338,0.676,0.693,0.977,1.083
			c0.289,0.383,0.536,0.933,0.883,1.248c-0.186-0.88-1.071-1.627-1.5-2.4c0.509,0.777,1.223,1.772,1.933,2.356
			c-0.49-0.679-1.123-1.361-1.308-2.212c0.64,0.565,0.953,1.564,1.654,2.05c-0.224-0.592-0.887-1.304-1.284-1.843
			c0.213,0.268,0.475,0.501,0.675,0.773c0.193,0.252,0.327,0.608,0.571,0.806c-0.104-0.49-0.591-1.025-0.856-1.458
			c0.408,0.376,0.664,0.904,1.095,1.248c-0.05-0.422-0.358-0.796-0.647-1.082c0.177,0.162,0.379,0.282,0.533,0.456
			c-0.178-0.218-0.364-0.498-0.576-0.656c-0.211-0.162-0.517-0.237-0.777-0.351c-0.606-0.271-0.988-0.411-1.64-0.426
			c-0.074-0.575,0.631-0.858,1.041-1.088c0.347-0.188,1.087-0.788,1.516-0.577c0.2,0.099,0.282,0.55,0.289,0.735
			c0.016,0.388-0.131,0.339-0.517,0.459c-0.579,0.181-1.126,0.316-1.713,0.43c-0.142,0.027-0.324,0.008-0.358,0.045
			c-0.058-0.147-0.144-0.29-0.22-0.421c0.271,0.12,0.547,0.316,0.811,0.455c-0.14-0.192-0.324-0.388-0.456-0.58
			c0.374-0.037,0.633,0.173,0.919,0.347c-0.101-0.222-0.294-0.396-0.41-0.615c0.294,0.098,0.548,0.407,0.803,0.577
			c-0.177-0.309-0.479-0.614-0.725-0.897c0.394,0.256,0.702,0.656,1.075,0.889c-0.139-0.361-0.451-0.662-0.605-1.028
			c0.347,0.189,0.645,0.565,0.896,0.803c-0.178-0.324-0.479-0.588-0.633-0.916c0.293,0.291,0.563,0.683,0.891,0.916
			c-0.146-0.264-0.258-0.645-0.49-0.845c0.232,0.212,0.371,0.486,0.603,0.702c-0.078-0.226-0.216-0.471-0.255-0.702
			c0.186,0.193,0.355,0.472,0.533,0.687c-0.414,0.019-0.757,0.241-1.165,0.279c-0.479,0.048-0.896-0.015-1.327,0.154
			c-0.243,0.098-0.271,0.135-0.433,0.313c-0.08,0.095-0.238,0.291-0.339,0.441c-0.224,0.35-0.116,0.882-0.246,1.27
			c-0.526-0.131-1.153,0.138-1.659-0.033c0.216-0.125,0.718-0.173,0.918-0.034c-0.085,0.528-0.208,1.042-0.266,1.591
			c-0.059,0.509-0.229,1.11-0.158,1.626c0.026-0.569,0.107-1.22,0.192-1.781c0.046-0.3,0.077-0.607,0.12-0.896
			c0.072-0.473,0.038-0.486-0.383-0.461c-0.744,0.042-0.438-0.61-0.744-1.142c-0.305-0.54-0.744-0.625-1.227-0.845
			c-0.841-0.388-1.951-0.459-2.715,0.155c-0.608,0.494-1.203,1.741-0.668,2.467c-0.305-0.435-0.527-1.02-0.547-1.532
			c-0.196,0.561-0.139,1.193-0.234,1.785c-0.098,0.62-0.147,1.193-0.116,1.828c0.05,1.274,0.254,2.405,0.739,3.543
			c0.395,0.906,0.811,1.79,1.56,2.465c0.332,0.297,0.671,0.563,0.995,0.868c0.17,0.162,0.339,0.316,0.528,0.448
			c0.104,0.073,0.517,0.296,0.381,0.28"/>
		<path fill="none" stroke="#000000" stroke-width="0.25" stroke-miterlimit="10" d="M6.337-45.87
			c0.417,0.173,1.4,0.532,2.033,0.659c0.496,0.104,1.211,0,1.611,0.185"/>
		<path fill="none" stroke="#000000" stroke-width="0.25" stroke-miterlimit="10" d="M8.161-48.202
			c0.277,0.26,0.899,0.705,1.246,0.625"/>
	</g>
	<g id="图层_8">
		<path fill="none" stroke="#000000" stroke-width="0.25" stroke-miterlimit="10" d="M6.287-40.725
			c-0.548-0.078-1.068,0.37-1.716,0.142c-0.532-0.185-1.211-0.736-1.578-1.165c-0.952-1.11-1.623-2.139-1.925-3.536
			c-0.273-1.241-1.037-2.267-1.628-3.301c-0.585-1.031-1.118-2.38-1.48-3.498c-0.39-1.236-0.532-2.517-0.324-3.84
			c0.213-1.354,0.941-2.318,1.458-3.597c0.486-1.189,0.787-2.485,0.965-3.76c0.185-1.402,0.447-2.337,0.987-3.622
			c0.54-1.292,0.799-1.718,1.962-2.48c0.522-0.335,0.761-0.659,1.408-0.7c0.603-0.034,1.177,0.037,1.79-0.06
			c1.148-0.173,2.464-0.381,3.514,0.162c0.91,0.479,1.689,1.246,2.499,1.88c0.94,0.743,1.739,1.427,2.468,2.362
			c0.599,0.762,1.778,1.425,2.19,2.314c0.421,0.904,0.375,2.58,0.421,3.645c0.058,1.261,0.298,2.468,0.298,3.775
			c0,1.304,0.099,2.569,0.084,3.844c-0.008,0.699,0.243,2.081-0.132,2.629c0.017,0.147,0.017,0.226,0.008,0.373
			c0.009,0.137,0.009,0.366,0,0.559c0.017,0.112,0.024,0.214,0,0.361c0.063,0.279,0.017,0.731,0,1.078
			c0.116,0.366-0.115,0.949-0.111,1.266c-0.112,0.219-0.112,0.381-0.185,0.624c0,0.017,0.111-0.061,0.111-0.065
			c-0.115,0.219-0.073,0.259-0.085,0.404c-0.015,0.032-0.03,0.059-0.046,0.085c0-0.011-0.023,0.231-0.023,0.223
			c0-0.099,0.007,0.082-0.058,0.178c0.019-0.062,0.05,0.124,0.05,0.124c-0.073,0.054-0.065,0.07-0.119,0.223
			c0.004-0.023,0.004-0.053,0.004-0.08c0.012,0.027-0.016,0.08-0.022,0.116c0.106,0.019,0.019,0.003,0.146,0.076
			c-0.023,0.027-0.039-0.03-0.046-0.034c0.015,0.042,0.015,0.092,0.046,0.139c-0.016-0.023-0.031-0.039-0.046-0.063
			c1.018,1.424-4.28,2.692-5.025,2.985c-1.539,0.618-5.219,1.523-6.549,0.139"/>
	</g>
</g>
<g id="图层_2_1_">
	<path fill="none" stroke="#000000" stroke-width="0.25" stroke-miterlimit="10" d="M-1.343-46.549
		c0.437-1.525,2.435,2.128,2.693,2.688c0.644,1.384,1.377,2.661,2.896,3.305c2.93,1.234,8.071,0.632,10.68-1.292
		c0.883-0.656,1.704-1.462,2.583-2.118c2.16,0.953,8.501,1.231,7.46,4.783c-0.524,1.781-1.47,3.479-2.126,5.26
		c-0.69,1.867-1.021,3.664-1.492,5.624c-0.34,1.438-0.74,2.854-1.057,4.32c-0.332,1.523-0.093,2.915,0,4.558
		c0.158,2.947,0.008,6.314,1.049,8.793c-0.098-0.849-0.494-1.646-0.586-2.467c-0.101-0.965,0.004-1.982-0.085-2.929
		c-0.178-1.816-0.124-3.574-0.37-5.379c-0.259-1.878,0.517-4.026-0.479-5.616c-0.879-1.399-0.931-3.478-1.165-5.14
		c-0.293-2.04-0.016-4.139-0.124-6.198c-0.096-1.967-1.195-3.513-1.504-5.357c0.856,0.027,1.598,0.42,2.445,0.589
		c0.834,0.17,1.535,0.232,2.33,0.44c1.928,0.509,2.685,1.033,3.609,2.838c0.872,1.712,0.896,3.464,1.574,5.207
		c0.617,1.573,1.308,3.016,1.696,4.612c0.941,3.799,1.659,7.807,3.059,11.409c-0.498,0.054-0.964,0.239-1.177,0.71
		c-1.453,0.227-2.595,1.87-3.725,2.819c-1.234,1.037-2.915,1.654-4.234,2.665c-1.058,0.806-2.526,2.938-2.084,4.357
		c0.229,0.74,0.973,1.08,1.409,1.636c0.759,0.948,0.458,1.106,0.088,2.071c-0.34,0.875-0.394,1.237,0.493,1.993
		c0.679,0.578,1.547,0.679,2.253,1.161c1.249,0.845,2.24,2.457,2.75,3.8c1.253,3.293,2.461,7.076,1.083,10.501
		c-0.34,0.833-2.036,4.262-3.401,3.51c-1.057-0.574,0.494-1.207,0.856-1.611c0.556-0.629,0.686-1.439,0.88-2.253
		c0.478-2.021,0.092-3.602-0.209-5.611c-0.254-1.686-0.563-3.456-1.177-5.025c-0.628-1.62-2.417-1.466-3.59-2.604
		c-0.494-0.479-1.011-1.547-0.609-2.19c0.741-1.199,0.505,0.979,0.463,1.403c-0.17,1.755,0.771,3.591,1.43,5.145
		c0.61,1.432,1.764,2.866,2.203,4.324c0.532,1.774-0.722,3.42-0.914,5.152c-0.22,1.905,0.066,3.795,0.351,5.615
		c0.158,0.999,0.719,1.696-0.608,2.013c-0.911,0.213-1.556-0.438-2.341-0.845c-1.852-0.959-2.789-0.415-4.675,0.144
		c-1.686,0.501-3.742,0.413-5.496,0.324c-2.056-0.108-3.834,0.373-5.734,0.579c-1.768,0.192-3.592-0.328-5.504-0.349
		c-1.74-0.016-3.672-0.474-5.466-0.725c-0.879-0.128-1.933,0-2.804-0.242c-0.713-0.192-1.474-0.606-2.156-0.873
		c-0.856-0.339-1.666-0.65-2.545-0.736c-0.972-0.101-1.863,0.479-2.469-0.347c-0.91-1.241-0.694-3.795-0.698-5.269
		c-0.004-1.974,0.567-3.537,1.077-5.354c0.778-2.741,0.917-5.514,0.914-8.558c0-1.512,0.32-2.769,0.609-4.185
		c0.208-1.022,0.212-3.605,1.129-4.1c-0.709,1.435-1.249,2.595-2.236,3.93c-0.992,1.346-1.621,2.762-1.96,4.362
		c-0.694,3.298-1.029,6.738-2.482,9.908c-0.903,1.974-2.369,3.953-0.564,5.89c1.195-0.885,1.516-3.592,1.847-4.926
		c0.429-1.728,0.892-3.271,1.409-4.937c0.536-1.729,1.256-3.494,1.87-5.148c0.605-1.621,0.833-3.287,1.2-5.003
		c0.354-1.666,0.539-3.277,1.28-4.901c0.825-1.813,1.647-3.572,2.43-5.392c1.318-3.086,1.929-6.34,3.799-9.21
		c0.563-0.865,0.807-1.543,1.165-2.461c0.272-0.702,0.404-1.744,0.751-2.395c-0.122-0.021-0.265-0.082-0.408-0.097
		c-0.046-3.294,1.67-6.329,2.53-9.372c0.393-1.412,1.222-3.811,0.961-5.233c-0.098-0.529-0.652-1.62-1.077-1.963
		c-0.771-0.625-1.396-0.271-2.222-0.053c-0.787,0.211-1.767,0.122-2.518,0.524c-0.22,0.115-0.753,0.439-0.822,0.694
		c-0.208,0.721,0.482,0.563,0.587,1.126c0.193,1.006-1.604,2.653-2.159,3.764c-1.505,3.004-1.111,7.671-0.332,10.768
		c0.309,1.227,0.887,6.186,2.537,6.43c-1.512-1.493-1.28-2.75-1.589-4.693c-0.277-1.763-0.732-3.418-0.94-5.262
		c-0.208-1.796,0.092-3.521,0.347-5.376c0.116-0.879,0.4-1.6,0.732-2.429c0.212-0.528,1.011-1.481,1.021-2.017
		c0.036-1.285-3.162-1.223-4.095-0.613c-1.188,0.779-2.589,1.859-3.537,2.923c-2.377,2.693-3.217,5.809-3.71,9.148
		c-0.506,3.448-1.228,7.625-0.471,11.238c0.192,0.926,0.547,1.235,0.332,2.183c-0.185,0.791-0.695,1.544-1.119,2.257
		c-0.826,1.399-1.497,3.449-0.849,5.142c0.54,1.388,2.145,2.53,3.541,2.368c1.396-0.17,3.425-1.554,4.743-0.745
		c0.715-3.02,2.129-6.236,3.684-8.959c1.732-3.05,2.396-6.336,3.707-9.518c1.346-3.279,1.311-6.936,2.66-10.074
		c0.363-0.849,0.81-1.382,0.854-2.314c0.042-0.922-0.313-1.689-0.112-2.568c0.216-0.988,0.613-1.544,0.32-2.669
		c-0.098-0.364-0.39-0.501-0.444-0.964c-0.058-0.475,0.54-0.501,0.236-0.818"/>
	<path fill="none" stroke="#000000" stroke-width="0.25" stroke-miterlimit="10" d="M-2.915-7.951
		c0.064-1.669,3.621,0.24,4.354,0.557C2.97-6.731,5.612-7.025,7.263-6.924c1.485,0.088,4.072,0.068,5.264,0.955
		c1.228,0.919,1.436,3.155,2.215,4.451c0.883,1.462,1.781,2.384,2.961,3.594c1.254,1.297,0.987,3.021,1.135,4.703
		c0.162,1.773,0.701,3.5,0.701,5.268c0.008,2.395-0.645,3.286-3.162,3.158c-1.855-0.089-3.609,0.112-5.491,0.112
		c-1.76,0-4.004,0.397-5.729-0.023c-1.878-0.462-3.155-1.731-5.147-1.731c-2.034,0-3.869,0.697-5.963,0.583
		c-2.534-0.14-2.148-1.521-2.334-3.738c-0.169-2.002-0.551-3.42,0.464-5.264c0.871-1.582,2.476-2.515,3.362-4.101
		C-3.659-0.391-2.8-2.731-2.796-4.333c0-0.586-1.25-4.106,0.115-3.74"/>
</g>
<g id="图层_3">
	<path fill="none" stroke="#000000" stroke-width="0.25" stroke-miterlimit="10" d="M-17.999-16.687
		c-0.575-0.959,2.198-2.579,3.163-2.533c0.408,0.019,0.528,0.377,1.053,0.316c0.181-0.023,0.729-0.452,0.907-0.532
		c0.833-0.395,1.804-0.81,2.688-1.119c1.479-0.517,3.157-1.388,4.701-1.701c0.948-0.192,2.074-0.238,2.931-0.783
		c0.625-0.4,1.088-1.056,1.635-1.565c1.273-1.184,2.515-2.391,3.861-3.517c0.521-0.433,1.122-0.787,1.562-1.296
		c0.255-0.301,0.305-0.774,0.686-1.01c0.907-0.563,1.888,0.097,2.662,0.4c-0.694,0.263-1.497,0.425-2.109,0.953
		c0.774-0.774,2.117-1.161,3.285-0.948c0.561,0.103,2.917,0.608,3.136,1.11c0.358,0.806-2.511,0.505-3.25,0.694
		c-1.149,0.297-2.145,0.599-3.147,1.192c0.671-0.64,5.919-1.878,5.134,0.024c-0.232,0.563-2.619,0.347-3.306,0.574
		c-0.856,0.29-1.569,0.915-2.18,1.504c0.834-0.551,1.512-0.96,2.473-1.245c1.28-0.394,1.531,0.123,2.761,0.185
		c0.05,0.833-1.773,1.064-2.444,1.38c-0.707,0.328-1.466,1.011-1.906,1.426c0.676-1.233,3.401-2.282,3.179-0.208
		c-1.712,0.362-2.819,1.689-4.339,2.227c-0.948,0.33-1.049-0.036-1.968-0.482c-0.859-0.417-1.72-0.101-2.537-0.425
		c-1.47-0.585-1.011-2.985-0.178-3.849c1.045-1.071,2.399-1.681,2.985-3.117c0.559-1.365-0.285-2.282-0.263-3.644
		c0.032-1.54,1.366-1.331,2.808-1.516C7.599-34.4,8.67-34.4,9.021-32.881c0.252,1.104,0.444,2.083,0.896,3.125
		c-1.488-0.154-3.086-1.115-4.489-0.463c-1.195,0.552-2.19,1.702-3.102,2.584c-1.056,1.011-2.652,1.821-2.885,3.163
		c-0.269,1.554,1.451,2.488,3.063,3.016c0.829,0.273,1.65,0.45,2.415,0.81c-1.62,0.679-2.141,2.302-3.464,3.289
		c-0.694,0.517-1.512,0.753-2.141,1.394c-0.552,0.563-0.979,1.31-1.547,1.92c-1.025,1.122-2.267,2.307-3.594,3.162
		c-1.729,1.115-2.742,1.293-4.798,1.297c-1.774,0-3.147,0.951-4.798,1.311c-1.982,0.436-3.325-0.178-4.678-1.404
		c-1.407-1.275-0.324-2.808,0.351-4.157c0.61-1.215,0.833-2.769,1.963-3.668c0.259-0.208,0.486-0.348,0.613-0.382"/>
	<path fill="none" stroke="#000000" stroke-width="0.25" stroke-miterlimit="10" d="M27.73-15.317
		c0.331-0.34,1.272-0.763,1.835-1.199c0.626-0.486,1.251-0.973,1.878-1.407c1.702-1.195,2.412-0.587,4.209,0.177
		c0.864,0.366,4.343,0.626,4.358,1.369c0.038,1.644-3.694,1.068-4.351,0.591c0.594-0.255,2.136,1.191,2.685,1.658
		c0.778,0.679,1.488,1.611,1.403,2.646c-1.554,1.18-1.886-1.585-0.925-2.418c0.05,0.072-0.102,0.112-0.094,0.192
		c0.016-0.004,0.464-0.08,0.456-0.08c0.4,0.446,0.463,0.925,0.471,1.508c0.012,0.937-0.094,0.59-0.498,1.253
		c-0.537,0.898-0.684,2.129-1.952,0.849c-0.523-0.524-1.73-2.73-0.354-2.78c1.23-0.051,1.562,1.823,1.709,2.557
		c0,0.084-0.243-0.124-0.178-0.108c0.378,0.255,0.246,0.354,0.32,0.787c-0.999,0.038-1.285-0.309-1.998-0.543
		c-0.583-0.194-1.674,0.042-1.967-0.723c-0.633-1.666,2.017-0.23,2.356,0.927c-0.412,0.438-1.157,0.146-1.627-0.102
		c-0.44,0.324-2.815,0.903-2.337-0.481c0.311-0.91,2.595-0.058,2.293,1.03c-0.675,0.331-1.414,0.304-2.086-0.043
		c-0.059,0.089-0.081,0.192-0.139,0.281c-1.011-0.273-2.152-0.867-3.102-1.416c-1.321-0.759-1.38-1.317-0.879-2.688
		c0.421-1.157,0.248-1.981,1.119-2.977c0.589-0.687,1.874-1.258,2.145-2.145c-1.401,0.185-2.808,2.414-3.965,3.251
		c-0.749,0.544-1.42,0.527-0.995,1.555c0.281,0.671,1.203,1.141,1.643,1.72c0.57,0.763,0.814,1.079,1.64,1.636
		c0.845,0.57,1.279,0.555,2.187,0.853c1.087,0.358,0.736,0.859,0.324,1.87c-0.324,0.81-0.896,1.434-1.254,2.221
		c-0.69,1.508-0.807,3.888-2.9,2.777c-1.786-0.949-2.634-2.307-4.146-3.564c-1.573-1.31-3.239-0.501-3.942-2.727
		c-0.671-2.141-0.254-2.387,1.636-3.475c0.817-0.466,1.574-1.057,2.457-1.399c0.929-0.362,2.04-0.25,2.804-0.965"/>
</g>
</svg>
